<svg width="32" height="32" viewBox="0 0 32 32" fill="none" xmlns="http://www.w3.org/2000/svg">
<g clip-path="url(#clip0_24_60)">
<g clip-path="url(#clip1_24_60)">
<path d="M30.3846 2.26929H1.61538C0.170947 2.26929 -1 3.44023 -1 4.88467V30.3847C-1 31.8291 0.170947 33.0001 1.61538 33.0001H30.3846C31.8291 33.0001 33 31.8291 33 30.3847V4.88467C33 3.44023 31.8291 2.26929 30.3846 2.26929Z" fill="url(#paint0_linear_24_60)"/>
<path d="M30.3846 -1H1.61538C0.170947 -1 -1 0.170948 -1 1.61538V27.7692C-1 29.2137 0.170947 30.3846 1.61538 30.3846H30.3846C31.8291 30.3846 33 29.2137 33 27.7692V1.61538C33 0.170948 31.8291 -1 30.3846 -1Z" fill="#191919"/>
<path d="M30.3836 29.0769H1.61433C0.892114 29.0769 0.306641 28.4914 0.306641 27.7692V1.61536C0.306641 0.89315 0.892114 0.307682 1.61433 0.307682H30.3836C31.1058 0.307682 31.6913 0.89315 31.6913 1.61536V27.7692C31.6913 28.4914 31.1058 29.0769 30.3836 29.0769Z" fill="#0F0F0F"/>
<path opacity="0.05" d="M1.61554 27.7693H30.3848V2.26929H1.61554V27.7693Z" fill="url(#paint1_radial_24_60)"/>
<g filter="url(#filter0_f_24_60)">
<path d="M8.81141 7.13636L4.23047 4.64661V6.19236L7.40513 7.70585V7.75234L4.23047 9.46159V11.0073L8.81141 8.32183V7.13636Z" fill="#24FF32" fill-opacity="0.4"/>
<path d="M10.1152 12.0769L10.1152 13.3846H15.346V12.0769H10.1152Z" fill="#24FF32" fill-opacity="0.4"/>
</g>
<g filter="url(#filter1_f_24_60)">
<path d="M8.81141 7.13636L4.23047 4.64661V6.19236L7.40513 7.70585V7.75234L4.23047 9.46159V11.0073L8.81141 8.32183V7.13636Z" fill="#24FF32" fill-opacity="0.4"/>
<path d="M10.1152 12.0769L10.1152 13.3846H15.346V12.0769H10.1152Z" fill="#24FF32" fill-opacity="0.4"/>
</g>
<path d="M8.81141 7.13636L4.23047 4.64661V6.19236L7.40513 7.70585V7.75234L4.23047 9.46159V11.0073L8.81141 8.32183V7.13636Z" fill="#24FF32"/>
<path d="M4.29585 10.8932V9.50064L7.43612 7.80991L7.47051 7.7914V7.75234V7.70585V7.66459L7.43327 7.64683L4.29585 6.15109V4.75656L8.74603 7.17524V8.28437L4.29585 10.8932Z" stroke="white" stroke-opacity="0.4" stroke-width="0.130769"/>
<path d="M10.1152 12.0769L10.1152 13.3846H15.346V12.0769H10.1152Z" fill="#24FF32"/>
<path d="M10.1806 13.3192L10.1806 12.1423H15.2806V13.3192H10.1806Z" stroke="white" stroke-opacity="0.4" stroke-width="0.130769"/>
<path d="M27.7691 18.6155H29.0768V19.9232H27.7691V18.6155ZM25.1537 18.6155H26.4614V19.9232H25.1537V18.6155ZM22.5383 18.6155H23.846V19.9232H22.5383V18.6155ZM19.9229 18.6155H21.2306V19.9232H19.9229V18.6155ZM17.3075 18.6155H18.6152V19.9232H17.3075V18.6155ZM14.6922 18.6155H15.9998V19.9232H14.6922V18.6155ZM12.0768 18.6155H13.3845V19.9232H12.0768V18.6155ZM9.46139 18.6155H10.7691V19.9232H9.46139V18.6155ZM6.846 18.6155H8.1537V19.9232H6.846V18.6155ZM4.23062 18.6155H5.53831V19.9232H4.23062V18.6155ZM1.61523 18.6155H2.92293V19.9232H1.61523V18.6155ZM29.0768 19.9232H30.3845V21.2309H29.0768V19.9232ZM26.4614 19.9232H27.7691V21.2309H26.4614V19.9232ZM23.846 19.9232H25.1537V21.2309H23.846V19.9232ZM21.2306 19.9232H22.5383V21.2309H21.2306V19.9232ZM18.6152 19.9232H19.9229V21.2309H18.6152V19.9232ZM15.9998 19.9232H17.3075V21.2309H15.9998V19.9232ZM13.3845 19.9232H14.6922V21.2309H13.3845V19.9232ZM10.7691 19.9232H12.0768V21.2309H10.7691V19.9232ZM8.1537 19.9232H9.46139V21.2309H8.1537V19.9232ZM5.53831 19.9232H6.846V21.2309H5.53831V19.9232ZM2.92293 19.9232H4.23062V21.2309H2.92293V19.9232ZM27.7691 21.2309H29.0768V22.5386H27.7691V21.2309ZM25.1537 21.2309H26.4614V22.5386H25.1537V21.2309ZM22.5383 21.2309H23.846V22.5386H22.5383V21.2309ZM19.9229 21.2309H21.2306V22.5386H19.9229V21.2309ZM17.3075 21.2309H18.6152V22.5386H17.3075V21.2309ZM14.6922 21.2309H15.9998V22.5386H14.6922V21.2309ZM12.0768 21.2309H13.3845V22.5386H12.0768V21.2309ZM9.46139 21.2309H10.7691V22.5386H9.46139V21.2309ZM6.846 21.2309H8.1537V22.5386H6.846V21.2309ZM4.23062 21.2309H5.53831V22.5386H4.23062V21.2309ZM1.61523 21.2309H2.92293V22.5386H1.61523V21.2309ZM29.0768 22.5386H30.3845V23.8462H29.0768V22.5386ZM26.4614 22.5386H27.7691V23.8462H26.4614V22.5386ZM23.846 22.5386H25.1537V23.8462H23.846V22.5386ZM21.2306 22.5386H22.5383V23.8462H21.2306V22.5386ZM18.6152 22.5386H19.9229V23.8462H18.6152V22.5386ZM15.9998 22.5386H17.3075V23.8462H15.9998V22.5386ZM13.3845 22.5386H14.6922V23.8462H13.3845V22.5386ZM10.7691 22.5386H12.0768V23.8462H10.7691V22.5386ZM8.1537 22.5386H9.46139V23.8462H8.1537V22.5386ZM5.53831 22.5386H6.846V23.8462H5.53831V22.5386ZM2.92293 22.5386H4.23062V23.8462H2.92293V22.5386ZM27.7691 23.8462H29.0768V25.1539H27.7691V23.8462ZM25.1537 23.8462H26.4614V25.1539H25.1537V23.8462ZM22.5383 23.8462H23.846V25.1539H22.5383V23.8462ZM19.9229 23.8462H21.2306V25.1539H19.9229V23.8462ZM17.3075 23.8462H18.6152V25.1539H17.3075V23.8462ZM14.6922 23.8462H15.9998V25.1539H14.6922V23.8462ZM12.0768 23.8462H13.3845V25.1539H12.0768V23.8462ZM9.46139 23.8462H10.7691V25.1539H9.46139V23.8462ZM6.846 23.8462H8.1537V25.1539H6.846V23.8462ZM4.23062 23.8462H5.53831V25.1539H4.23062V23.8462ZM1.61523 23.8462H2.92293V25.1539H1.61523V23.8462ZM29.0768 25.1539H30.3845V26.4616H29.0768V25.1539ZM26.4614 25.1539H27.7691V26.4616H26.4614V25.1539ZM23.846 25.1539H25.1537V26.4616H23.846V25.1539ZM21.2306 25.1539H22.5383V26.4616H21.2306V25.1539ZM18.6152 25.1539H19.9229V26.4616H18.6152V25.1539ZM15.9998 25.1539H17.3075V26.4616H15.9998V25.1539ZM13.3845 25.1539H14.6922V26.4616H13.3845V25.1539ZM10.7691 25.1539H12.0768V26.4616H10.7691V25.1539ZM8.1537 25.1539H9.46139V26.4616H8.1537V25.1539ZM5.53831 25.1539H6.846V26.4616H5.53831V25.1539ZM2.92293 25.1539H4.23062V26.4616H2.92293V25.1539ZM27.7691 26.4616H29.0768V27.7693H27.7691V26.4616ZM25.1537 26.4616H26.4614V27.7693H25.1537V26.4616ZM22.5383 26.4616H23.846V27.7693H22.5383V26.4616ZM19.9229 26.4616H21.2306V27.7693H19.9229V26.4616ZM17.3075 26.4616H18.6152V27.7693H17.3075V26.4616ZM14.6922 26.4616H15.9998V27.7693H14.6922V26.4616ZM12.0768 26.4616H13.3845V27.7693H12.0768V26.4616ZM9.46139 26.4616H10.7691V27.7693H9.46139V26.4616ZM6.846 26.4616H8.1537V27.7693H6.846V26.4616ZM4.23062 26.4616H5.53831V27.7693H4.23062V26.4616ZM1.61523 26.4616H2.92293V27.7693H1.61523V26.4616Z" fill="url(#paint2_linear_24_60)"/>
</g>
</g>
<defs>
<filter id="filter0_f_24_60" x="2.92278" y="3.33891" width="13.7306" height="11.3534" filterUnits="userSpaceOnUse" color-interpolation-filters="sRGB">
<feFlood flood-opacity="0" result="BackgroundImageFix"/>
<feBlend mode="normal" in="SourceGraphic" in2="BackgroundImageFix" result="shape"/>
<feGaussianBlur stdDeviation="0.653846" result="effect1_foregroundBlur_24_60"/>
</filter>
<filter id="filter1_f_24_60" x="2.92278" y="3.33891" width="13.7306" height="11.3534" filterUnits="userSpaceOnUse" color-interpolation-filters="sRGB">
<feFlood flood-opacity="0" result="BackgroundImageFix"/>
<feBlend mode="normal" in="SourceGraphic" in2="BackgroundImageFix" result="shape"/>
<feGaussianBlur stdDeviation="0.653846" result="effect1_foregroundBlur_24_60"/>
</filter>
<linearGradient id="paint0_linear_24_60" x1="-1" y1="16.0001" x2="33" y2="16.0001" gradientUnits="userSpaceOnUse">
<stop stop-color="#282828"/>
<stop offset="0.05" stop-color="#52514E"/>
<stop offset="0.1" stop-color="#4A4946"/>
<stop offset="0.899999" stop-color="#181714"/>
<stop offset="0.95" stop-color="#343332"/>
<stop offset="1" stop-color="#141417"/>
</linearGradient>
<radialGradient id="paint1_radial_24_60" cx="0" cy="0" r="1" gradientUnits="userSpaceOnUse" gradientTransform="translate(16.0002 26.4616) scale(68 23.5385)">
<stop stop-color="white"/>
<stop offset="1" stop-color="white" stop-opacity="0.0941176"/>
</radialGradient>
<linearGradient id="paint2_linear_24_60" x1="18.0747" y1="19.0716" x2="18.0747" y2="26.8333" gradientUnits="userSpaceOnUse">
<stop stop-opacity="0"/>
<stop offset="1" stop-color="white" stop-opacity="0.02"/>
</linearGradient>
<clipPath id="clip0_24_60">
<rect width="32" height="32" fill="white"/>
</clipPath>
<clipPath id="clip1_24_60">
<rect width="34" height="34" fill="white" transform="translate(-1 -1)"/>
</clipPath>
</defs>
</svg>
