<svg width="32" height="32" viewBox="0 0 32 32" fill="none" xmlns="http://www.w3.org/2000/svg">
<g clip-path="url(#clip0_56_2)">
<path opacity="0.2" d="M33.1875 31.8757C33.1875 32.373 31.3767 32.8499 28.1534 33.2016C24.9301 33.5532 20.5584 33.7507 16 33.7507C11.4416 33.7507 7.06988 33.5532 3.8466 33.2016C0.623321 32.8499 -1.1875 32.373 -1.1875 31.8757C-1.1875 31.3785 0.623321 30.9015 3.8466 30.5499C7.06988 30.1983 11.4416 30.0007 16 30.0007C20.5584 30.0007 24.9301 30.1983 28.1534 30.5499C31.3767 30.9015 33.1875 31.3785 33.1875 31.8757Z" fill="url(#paint0_radial_56_2)"/>
<g opacity="0.4">
<path d="M28.4365 31.2506H32.8773V32.8131H28.4365V31.2506Z" fill="url(#paint1_radial_56_2)"/>
<path d="M3.56836 32.8131H-0.872422V31.2506H3.56836V32.8131Z" fill="url(#paint2_radial_56_2)"/>
<path d="M3.56836 31.2506H28.4367V32.8131H3.56836V31.2506Z" fill="url(#paint3_linear_56_2)"/>
</g>
<path opacity="0.9" d="M30.2016 -0.155518H1.79844C0.753411 -0.155518 -0.09375 0.691644 -0.09375 1.73667V30.1398C-0.09375 31.1848 0.753411 32.032 1.79844 32.032H30.2016C31.2466 32.032 32.0938 31.1848 32.0938 30.1398V1.73667C32.0938 0.691644 31.2466 -0.155518 30.2016 -0.155518Z" fill="url(#paint4_radial_56_2)"/>
<path opacity="0.3" d="M30.2188 0.156982H1.78125C0.918305 0.156982 0.21875 0.856537 0.21875 1.71948V30.157C0.21875 31.0199 0.918305 31.7195 1.78125 31.7195H30.2188C31.0817 31.7195 31.7812 31.0199 31.7812 30.157V1.71948C31.7812 0.856537 31.0817 0.156982 30.2188 0.156982Z" stroke="url(#paint5_linear_56_2)" stroke-width="0.3125" stroke-linecap="round" stroke-linejoin="round"/>
<path opacity="0.7" d="M30.2016 -0.155518H1.79844C0.753411 -0.155518 -0.09375 0.691644 -0.09375 1.73667V30.1398C-0.09375 31.1848 0.753411 32.032 1.79844 32.032H30.2016C31.2466 32.032 32.0938 31.1848 32.0938 30.1398V1.73667C32.0938 0.691644 31.2466 -0.155518 30.2016 -0.155518Z" stroke="#860B0B" stroke-width="0.3125" stroke-linecap="round" stroke-linejoin="round"/>
<mask id="path-8-outside-1_56_2" maskUnits="userSpaceOnUse" x="5.65918" y="3.77661" width="20" height="24" fill="black">
<rect fill="white" x="5.65918" y="3.77661" width="20" height="24"/>
<path fill-rule="evenodd" clip-rule="evenodd" d="M12.8604 6.44591C12.8604 5.52398 13.6077 4.77661 14.5297 4.77661H17.6298C18.5517 4.77661 19.2991 5.52398 19.2991 6.44591C19.2991 7.31068 18.6415 8.02187 17.7991 8.10673C18.8503 8.2965 19.8614 8.66294 20.7892 9.18975L21.5577 8.42124C22.2096 7.76934 23.2665 7.76934 23.9185 8.42124C24.5704 9.07315 24.5704 10.1301 23.9185 10.782L23.365 11.3354C24.4521 12.631 25.1783 14.2023 25.4541 15.8898C25.7142 17.4812 25.5617 19.1022 25.0252 20.6019C24.6857 21.5508 23.5469 21.8328 22.6806 21.3177C21.8144 20.8026 21.5631 19.68 21.7853 18.697C21.9488 17.9741 21.9737 17.2211 21.8523 16.4785C21.6319 15.1298 20.9431 13.902 19.907 13.0109C18.8709 12.1198 17.5538 11.6224 16.1873 11.6062C14.8208 11.5901 13.4923 12.0561 12.4355 12.9225C11.3786 13.7888 10.6609 15 10.4086 16.3431C10.1563 17.6862 10.3856 19.0753 11.0561 20.2661C11.7266 21.4569 12.7954 22.3732 14.0746 22.854C14.7789 23.1187 15.5221 23.2421 16.2631 23.2237C17.2706 23.1986 18.3221 23.6654 18.6572 24.6158C18.9923 25.5663 18.4923 26.6277 17.4952 26.7743C15.9193 27.0061 14.3 26.8376 12.7906 26.2703C10.7078 25.4875 8.96761 23.9955 7.87595 22.0566C6.78428 20.1178 6.41102 17.8562 6.82178 15.6694C7.23254 13.4826 8.40103 11.5106 10.1218 10.1C11.3685 9.07811 12.8472 8.39828 14.4133 8.11122C13.5457 8.05151 12.8604 7.32874 12.8604 6.44591Z"/>
</mask>
<path fill-rule="evenodd" clip-rule="evenodd" d="M12.8604 6.44591C12.8604 5.52398 13.6077 4.77661 14.5297 4.77661H17.6298C18.5517 4.77661 19.2991 5.52398 19.2991 6.44591C19.2991 7.31068 18.6415 8.02187 17.7991 8.10673C18.8503 8.2965 19.8614 8.66294 20.7892 9.18975L21.5577 8.42124C22.2096 7.76934 23.2665 7.76934 23.9185 8.42124C24.5704 9.07315 24.5704 10.1301 23.9185 10.782L23.365 11.3354C24.4521 12.631 25.1783 14.2023 25.4541 15.8898C25.7142 17.4812 25.5617 19.1022 25.0252 20.6019C24.6857 21.5508 23.5469 21.8328 22.6806 21.3177C21.8144 20.8026 21.5631 19.68 21.7853 18.697C21.9488 17.9741 21.9737 17.2211 21.8523 16.4785C21.6319 15.1298 20.9431 13.902 19.907 13.0109C18.8709 12.1198 17.5538 11.6224 16.1873 11.6062C14.8208 11.5901 13.4923 12.0561 12.4355 12.9225C11.3786 13.7888 10.6609 15 10.4086 16.3431C10.1563 17.6862 10.3856 19.0753 11.0561 20.2661C11.7266 21.4569 12.7954 22.3732 14.0746 22.854C14.7789 23.1187 15.5221 23.2421 16.2631 23.2237C17.2706 23.1986 18.3221 23.6654 18.6572 24.6158C18.9923 25.5663 18.4923 26.6277 17.4952 26.7743C15.9193 27.0061 14.3 26.8376 12.7906 26.2703C10.7078 25.4875 8.96761 23.9955 7.87595 22.0566C6.78428 20.1178 6.41102 17.8562 6.82178 15.6694C7.23254 13.4826 8.40103 11.5106 10.1218 10.1C11.3685 9.07811 12.8472 8.39828 14.4133 8.11122C13.5457 8.05151 12.8604 7.32874 12.8604 6.44591Z" fill="url(#paint6_linear_56_2)"/>
<path d="M17.7991 8.10673L17.7911 8.02764L17.785 8.18496L17.7991 8.10673ZM20.7892 9.18975L20.7499 9.25888L20.8026 9.28877L20.8454 9.24596L20.7892 9.18975ZM21.5577 8.42124L21.5015 8.36504L21.5015 8.36504L21.5577 8.42124ZM23.9185 8.42124L23.9747 8.36504L23.9747 8.36504L23.9185 8.42124ZM23.9185 10.782L23.9747 10.8382L23.9747 10.8382L23.9185 10.782ZM23.365 11.3354L23.3088 11.2792L23.2573 11.3307L23.3041 11.3865L23.365 11.3354ZM25.4541 15.8898L25.5325 15.877L25.5325 15.877L25.4541 15.8898ZM25.0252 20.6019L25.1 20.6287L25.1 20.6287L25.0252 20.6019ZM22.6806 21.3177L22.64 21.386L22.64 21.386L22.6806 21.3177ZM21.7853 18.697L21.7078 18.6795L21.7078 18.6795L21.7853 18.697ZM21.8523 16.4785L21.7739 16.4913L21.7739 16.4913L21.8523 16.4785ZM19.907 13.0109L19.8551 13.0711L19.8551 13.0711L19.907 13.0109ZM16.1873 11.6062L16.1864 11.6857L16.1864 11.6857L16.1873 11.6062ZM12.4355 12.9225L12.3851 12.861L12.3851 12.861L12.4355 12.9225ZM10.4086 16.3431L10.3305 16.3284L10.3305 16.3284L10.4086 16.3431ZM11.0561 20.2661L10.9868 20.3051L10.9868 20.3051L11.0561 20.2661ZM14.0746 22.854L14.0466 22.9284L14.0466 22.9284L14.0746 22.854ZM16.2631 23.2237L16.265 23.3031L16.265 23.3031L16.2631 23.2237ZM18.6572 24.6158L18.5822 24.6422L18.5822 24.6422L18.6572 24.6158ZM17.4952 26.7743L17.4837 26.6957L17.4837 26.6957L17.4952 26.7743ZM12.7906 26.2703L12.7626 26.3447L12.7626 26.3447L12.7906 26.2703ZM7.87595 22.0566L7.94521 22.0176L7.94521 22.0176L7.87595 22.0566ZM6.82178 15.6694L6.89991 15.6841L6.89991 15.6841L6.82178 15.6694ZM10.1218 10.1L10.1722 10.1615L10.1722 10.1615L10.1218 10.1ZM14.4133 8.11122L14.4277 8.18941L14.4188 8.03192L14.4133 8.11122ZM14.5297 4.69712C13.5638 4.69712 12.7809 5.48008 12.7809 6.44591H12.9398C12.9398 5.56788 13.6516 4.8561 14.5297 4.8561V4.69712ZM17.6298 4.69712H14.5297V4.8561H17.6298V4.69712ZM19.3786 6.44591C19.3786 5.48008 18.5956 4.69712 17.6298 4.69712V4.8561C18.5078 4.8561 19.2196 5.56788 19.2196 6.44591H19.3786ZM17.8071 8.18582C18.6897 8.09691 19.3786 7.35191 19.3786 6.44591H19.2196C19.2196 7.26945 18.5933 7.94683 17.7911 8.02764L17.8071 8.18582ZM20.8284 9.12063C19.8928 8.58939 18.8732 8.21987 17.8132 8.0285L17.785 8.18496C18.8273 8.37314 19.8299 8.73649 20.7499 9.25888L20.8284 9.12063ZM20.8454 9.24596L21.6139 8.47745L21.5015 8.36504L20.733 9.13355L20.8454 9.24596ZM21.6139 8.47745C22.2348 7.85659 23.2414 7.85659 23.8622 8.47745L23.9747 8.36504C23.2917 7.68209 22.1844 7.68209 21.5015 8.36504L21.6139 8.47745ZM23.8622 8.47745C24.4831 9.09831 24.4831 10.1049 23.8622 10.7258L23.9747 10.8382C24.6576 10.1553 24.6576 9.04798 23.9747 8.36504L23.8622 8.47745ZM23.8622 10.7258L23.3088 11.2792L23.4212 11.3916L23.9747 10.8382L23.8622 10.7258ZM25.5325 15.877C25.2544 14.1753 24.5221 12.5908 23.4259 11.2843L23.3041 11.3865C24.3821 12.6712 25.1021 14.2293 25.3756 15.9027L25.5325 15.877ZM25.1 20.6287C25.641 19.1163 25.7948 17.4818 25.5325 15.877L25.3756 15.9027C25.6335 17.4807 25.4823 19.088 24.9503 20.5752L25.1 20.6287ZM22.64 21.386C23.5395 21.9209 24.7401 21.6348 25.1 20.6287L24.9503 20.5752C24.6313 21.4668 23.5543 21.7447 22.7213 21.2494L22.64 21.386ZM21.7078 18.6795C21.4813 19.6811 21.7329 20.8466 22.64 21.386L22.7213 21.2494C21.896 20.7586 21.6448 19.6788 21.8629 18.7145L21.7078 18.6795ZM21.7739 16.4913C21.8936 17.2237 21.869 17.9664 21.7078 18.6795L21.8629 18.7145C22.0285 17.9817 22.0538 17.2184 21.9308 16.4657L21.7739 16.4913ZM19.8551 13.0711C20.877 13.9501 21.5564 15.1611 21.7739 16.4913L21.9308 16.4657C21.7073 15.0985 21.0091 13.8539 19.9588 12.9506L19.8551 13.0711ZM16.1864 11.6857C17.5342 11.7017 18.8332 12.1922 19.8551 13.0711L19.9588 12.9506C18.9085 12.0473 17.5734 11.5431 16.1882 11.5268L16.1864 11.6857ZM12.4858 12.9839C13.5283 12.1295 14.8386 11.6698 16.1864 11.6857L16.1882 11.5268C14.8031 11.5104 13.4564 11.9828 12.3851 12.861L12.4858 12.9839ZM10.4867 16.3578C10.7356 15.0331 11.4434 13.8384 12.4858 12.9839L12.3851 12.861C11.3137 13.7392 10.5862 14.967 10.3305 16.3284L10.4867 16.3578ZM11.1253 20.2271C10.464 19.0526 10.2379 17.6825 10.4867 16.3578L10.3305 16.3284C10.0748 17.6899 10.3071 19.098 10.9868 20.3051L11.1253 20.2271ZM14.1025 22.7796C12.8408 22.3054 11.7866 21.4016 11.1253 20.2271L10.9868 20.3051C11.6665 21.5122 12.7499 22.4411 14.0466 22.9284L14.1025 22.7796ZM16.2611 23.1442C15.5303 23.1624 14.7972 23.0407 14.1025 22.7796L14.0466 22.9284C14.7605 23.1968 15.514 23.3218 16.265 23.3031L16.2611 23.1442ZM18.7321 24.5894C18.3812 23.594 17.2877 23.1187 16.2611 23.1442L16.265 23.3031C17.2534 23.2785 18.2629 23.7367 18.5822 24.6422L18.7321 24.5894ZM17.5068 26.853C18.564 26.6975 19.0801 25.5763 18.7321 24.5894L18.5822 24.6422C18.9044 25.5563 18.4206 26.5579 17.4837 26.6957L17.5068 26.853ZM12.7626 26.3447C14.2847 26.9167 15.9177 27.0867 17.5068 26.853L17.4837 26.6957C15.921 26.9255 14.3153 26.7584 12.8186 26.1959L12.7626 26.3447ZM7.80668 22.0956C8.90752 24.0508 10.6623 25.5553 12.7626 26.3447L12.8186 26.1959C10.7533 25.4196 9.0277 23.9402 7.94521 22.0176L7.80668 22.0956ZM6.74366 15.6547C6.32945 17.8599 6.70584 20.1405 7.80668 22.0956L7.94521 22.0176C6.86272 20.0951 6.4926 17.8525 6.89991 15.6841L6.74366 15.6547ZM10.0714 10.0385C8.33617 11.4609 7.15787 13.4495 6.74366 15.6547L6.89991 15.6841C7.30721 13.5156 8.46588 11.5602 10.1722 10.1615L10.0714 10.0385ZM14.399 8.03304C12.8197 8.3225 11.3285 9.00804 10.0714 10.0385L10.1722 10.1615C11.4084 9.14817 12.8746 8.47405 14.4277 8.18941L14.399 8.03304ZM12.7809 6.44591C12.7809 7.37081 13.4988 8.12796 14.4079 8.19053L14.4188 8.03192C13.5925 7.97505 12.9398 7.28667 12.9398 6.44591H12.7809Z" fill="white" fill-opacity="0.1" mask="url(#path-8-outside-1_56_2)"/>
<path d="M17.7991 8.10673L17.7911 8.02764L17.785 8.18496L17.7991 8.10673ZM20.7892 9.18975L20.7499 9.25888L20.8026 9.28877L20.8454 9.24596L20.7892 9.18975ZM21.5577 8.42124L21.5015 8.36504L21.5015 8.36504L21.5577 8.42124ZM23.9185 8.42124L23.9747 8.36504L23.9747 8.36504L23.9185 8.42124ZM23.9185 10.782L23.9747 10.8382L23.9747 10.8382L23.9185 10.782ZM23.365 11.3354L23.3088 11.2792L23.2573 11.3307L23.3041 11.3865L23.365 11.3354ZM25.4541 15.8898L25.5325 15.877L25.5325 15.877L25.4541 15.8898ZM25.0252 20.6019L25.1 20.6287L25.1 20.6287L25.0252 20.6019ZM22.6806 21.3177L22.64 21.386L22.64 21.386L22.6806 21.3177ZM21.7853 18.697L21.7078 18.6795L21.7078 18.6795L21.7853 18.697ZM21.8523 16.4785L21.7739 16.4913L21.7739 16.4913L21.8523 16.4785ZM19.907 13.0109L19.8551 13.0711L19.8551 13.0711L19.907 13.0109ZM16.1873 11.6062L16.1864 11.6857L16.1864 11.6857L16.1873 11.6062ZM12.4355 12.9225L12.3851 12.861L12.3851 12.861L12.4355 12.9225ZM10.4086 16.3431L10.3305 16.3284L10.3305 16.3284L10.4086 16.3431ZM11.0561 20.2661L10.9868 20.3051L10.9868 20.3051L11.0561 20.2661ZM14.0746 22.854L14.0466 22.9284L14.0466 22.9284L14.0746 22.854ZM16.2631 23.2237L16.265 23.3031L16.265 23.3031L16.2631 23.2237ZM18.6572 24.6158L18.5822 24.6422L18.5822 24.6422L18.6572 24.6158ZM17.4952 26.7743L17.4837 26.6957L17.4837 26.6957L17.4952 26.7743ZM12.7906 26.2703L12.7626 26.3447L12.7626 26.3447L12.7906 26.2703ZM7.87595 22.0566L7.94521 22.0176L7.94521 22.0176L7.87595 22.0566ZM6.82178 15.6694L6.89991 15.6841L6.89991 15.6841L6.82178 15.6694ZM10.1218 10.1L10.1722 10.1615L10.1722 10.1615L10.1218 10.1ZM14.4133 8.11122L14.4277 8.18941L14.4188 8.03192L14.4133 8.11122ZM14.5297 4.69712C13.5638 4.69712 12.7809 5.48008 12.7809 6.44591H12.9398C12.9398 5.56788 13.6516 4.8561 14.5297 4.8561V4.69712ZM17.6298 4.69712H14.5297V4.8561H17.6298V4.69712ZM19.3786 6.44591C19.3786 5.48008 18.5956 4.69712 17.6298 4.69712V4.8561C18.5078 4.8561 19.2196 5.56788 19.2196 6.44591H19.3786ZM17.8071 8.18582C18.6897 8.09691 19.3786 7.35191 19.3786 6.44591H19.2196C19.2196 7.26945 18.5933 7.94683 17.7911 8.02764L17.8071 8.18582ZM20.8284 9.12063C19.8928 8.58939 18.8732 8.21987 17.8132 8.0285L17.785 8.18496C18.8273 8.37314 19.8299 8.73649 20.7499 9.25888L20.8284 9.12063ZM20.8454 9.24596L21.6139 8.47745L21.5015 8.36504L20.733 9.13355L20.8454 9.24596ZM21.6139 8.47745C22.2348 7.85659 23.2414 7.85659 23.8622 8.47745L23.9747 8.36504C23.2917 7.68209 22.1844 7.68209 21.5015 8.36504L21.6139 8.47745ZM23.8622 8.47745C24.4831 9.09831 24.4831 10.1049 23.8622 10.7258L23.9747 10.8382C24.6576 10.1553 24.6576 9.04798 23.9747 8.36504L23.8622 8.47745ZM23.8622 10.7258L23.3088 11.2792L23.4212 11.3916L23.9747 10.8382L23.8622 10.7258ZM25.5325 15.877C25.2544 14.1753 24.5221 12.5908 23.4259 11.2843L23.3041 11.3865C24.3821 12.6712 25.1021 14.2293 25.3756 15.9027L25.5325 15.877ZM25.1 20.6287C25.641 19.1163 25.7948 17.4818 25.5325 15.877L25.3756 15.9027C25.6335 17.4807 25.4823 19.088 24.9503 20.5752L25.1 20.6287ZM22.64 21.386C23.5395 21.9209 24.7401 21.6348 25.1 20.6287L24.9503 20.5752C24.6313 21.4668 23.5543 21.7447 22.7213 21.2494L22.64 21.386ZM21.7078 18.6795C21.4813 19.6811 21.7329 20.8466 22.64 21.386L22.7213 21.2494C21.896 20.7586 21.6448 19.6788 21.8629 18.7145L21.7078 18.6795ZM21.7739 16.4913C21.8936 17.2237 21.869 17.9664 21.7078 18.6795L21.8629 18.7145C22.0285 17.9817 22.0538 17.2184 21.9308 16.4657L21.7739 16.4913ZM19.8551 13.0711C20.877 13.9501 21.5564 15.1611 21.7739 16.4913L21.9308 16.4657C21.7073 15.0985 21.0091 13.8539 19.9588 12.9506L19.8551 13.0711ZM16.1864 11.6857C17.5342 11.7017 18.8332 12.1922 19.8551 13.0711L19.9588 12.9506C18.9085 12.0473 17.5734 11.5431 16.1882 11.5268L16.1864 11.6857ZM12.4858 12.9839C13.5283 12.1295 14.8386 11.6698 16.1864 11.6857L16.1882 11.5268C14.8031 11.5104 13.4564 11.9828 12.3851 12.861L12.4858 12.9839ZM10.4867 16.3578C10.7356 15.0331 11.4434 13.8384 12.4858 12.9839L12.3851 12.861C11.3137 13.7392 10.5862 14.967 10.3305 16.3284L10.4867 16.3578ZM11.1253 20.2271C10.464 19.0526 10.2379 17.6825 10.4867 16.3578L10.3305 16.3284C10.0748 17.6899 10.3071 19.098 10.9868 20.3051L11.1253 20.2271ZM14.1025 22.7796C12.8408 22.3054 11.7866 21.4016 11.1253 20.2271L10.9868 20.3051C11.6665 21.5122 12.7499 22.4411 14.0466 22.9284L14.1025 22.7796ZM16.2611 23.1442C15.5303 23.1624 14.7972 23.0407 14.1025 22.7796L14.0466 22.9284C14.7605 23.1968 15.514 23.3218 16.265 23.3031L16.2611 23.1442ZM18.7321 24.5894C18.3812 23.594 17.2877 23.1187 16.2611 23.1442L16.265 23.3031C17.2534 23.2785 18.2629 23.7367 18.5822 24.6422L18.7321 24.5894ZM17.5068 26.853C18.564 26.6975 19.0801 25.5763 18.7321 24.5894L18.5822 24.6422C18.9044 25.5563 18.4206 26.5579 17.4837 26.6957L17.5068 26.853ZM12.7626 26.3447C14.2847 26.9167 15.9177 27.0867 17.5068 26.853L17.4837 26.6957C15.921 26.9255 14.3153 26.7584 12.8186 26.1959L12.7626 26.3447ZM7.80668 22.0956C8.90752 24.0508 10.6623 25.5553 12.7626 26.3447L12.8186 26.1959C10.7533 25.4196 9.0277 23.9402 7.94521 22.0176L7.80668 22.0956ZM6.74366 15.6547C6.32945 17.8599 6.70584 20.1405 7.80668 22.0956L7.94521 22.0176C6.86272 20.0951 6.4926 17.8525 6.89991 15.6841L6.74366 15.6547ZM10.0714 10.0385C8.33617 11.4609 7.15787 13.4495 6.74366 15.6547L6.89991 15.6841C7.30721 13.5156 8.46588 11.5602 10.1722 10.1615L10.0714 10.0385ZM14.399 8.03304C12.8197 8.3225 11.3285 9.00804 10.0714 10.0385L10.1722 10.1615C11.4084 9.14817 12.8746 8.47405 14.4277 8.18941L14.399 8.03304ZM12.7809 6.44591C12.7809 7.37081 13.4988 8.12796 14.4079 8.19053L14.4188 8.03192C13.5925 7.97505 12.9398 7.28667 12.9398 6.44591H12.7809Z" fill="black" fill-opacity="0.1" mask="url(#path-8-outside-1_56_2)"/>
</g>
<defs>
<radialGradient id="paint0_radial_56_2" cx="0" cy="0" r="1" gradientUnits="userSpaceOnUse" gradientTransform="translate(15.9998 31.8757) scale(17.1875 1.87501)">
<stop/>
<stop offset="1" stop-opacity="0"/>
</radialGradient>
<radialGradient id="paint1_radial_56_2" cx="0" cy="0" r="1" gradientUnits="userSpaceOnUse" gradientTransform="translate(28.4302 32.0319) scale(4.44917 0.781255)">
<stop stop-color="#181818"/>
<stop offset="1" stop-color="#181818" stop-opacity="0"/>
</radialGradient>
<radialGradient id="paint2_radial_56_2" cx="0" cy="0" r="1" gradientUnits="userSpaceOnUse" gradientTransform="translate(3.57469 32.0319) rotate(180) scale(4.44917 0.781255)">
<stop stop-color="#181818"/>
<stop offset="1" stop-color="#181818" stop-opacity="0"/>
</radialGradient>
<linearGradient id="paint3_linear_56_2" x1="16.9422" y1="32.8194" x2="16.9422" y2="31.2504" gradientUnits="userSpaceOnUse">
<stop stop-color="#181818" stop-opacity="0"/>
<stop offset="0.5" stop-color="#181818"/>
<stop offset="1" stop-color="#181818" stop-opacity="0"/>
</linearGradient>
<radialGradient id="paint4_radial_56_2" cx="0" cy="0" r="1" gradientUnits="userSpaceOnUse" gradientTransform="translate(16.6895 -15.2725) rotate(90) scale(95.5929 117.358)">
<stop stop-color="#E52727"/>
<stop offset="1" stop-color="#9C2222"/>
</radialGradient>
<linearGradient id="paint5_linear_56_2" x1="15.9999" y1="-0.269689" x2="15.9999" y2="32.1459" gradientUnits="userSpaceOnUse">
<stop stop-color="white"/>
<stop offset="0.063" stop-color="white" stop-opacity="0.235"/>
<stop offset="0.951" stop-color="white" stop-opacity="0.157"/>
<stop offset="1" stop-color="white" stop-opacity="0.392"/>
</linearGradient>
<linearGradient id="paint6_linear_56_2" x1="22.4204" y1="10.1724" x2="16.1186" y2="31.6444" gradientUnits="userSpaceOnUse">
<stop stop-color="white"/>
<stop offset="0.405" stop-color="white" stop-opacity="0.2"/>
<stop offset="0.65" stop-color="white" stop-opacity="0.07"/>
<stop offset="0.8" stop-color="white" stop-opacity="0"/>
</linearGradient>
<clipPath id="clip0_56_2">
<rect width="32" height="32" fill="white"/>
</clipPath>
</defs>
</svg>
