<svg width="32" height="32" viewBox="0 0 32 32" fill="none" xmlns="http://www.w3.org/2000/svg">
<rect width="32" height="32" fill="#1B5B3B"/>
<path fill-rule="evenodd" clip-rule="evenodd" d="M13.4401 24.5268C13.4401 24.9239 13.7621 25.2458 14.1592 25.2458H16.9455C17.3426 25.2458 17.6645 24.9239 17.6645 24.5268L17.6645 19.7819L21.774 22.1545C22.1179 22.353 22.5577 22.2352 22.7562 21.8913L24.1494 19.4783C24.3479 19.1343 24.2301 18.6946 23.8862 18.496L19.7765 16.1233L23.8862 13.7506C24.2301 13.552 24.3479 13.1123 24.1494 12.7684L22.7562 10.3553C22.5577 10.0114 22.1179 9.89359 21.774 10.0922L17.6645 12.4647V7.71905C17.6645 7.32193 17.3426 7 16.9455 7L14.1592 7C13.7621 7 13.4401 7.32193 13.4401 7.71905V12.465L9.33026 10.0922C8.98634 9.89359 8.54658 10.0114 8.34802 10.3553L6.95487 12.7684C6.75631 13.1123 6.87414 13.552 7.21806 13.7506L11.3277 16.1233L7.21804 18.496C6.87413 18.6946 6.75629 19.1343 6.95485 19.4783L8.34801 21.8913C8.54657 22.2352 8.98633 22.353 9.33025 22.1545L13.4401 19.7816L13.4401 24.5268ZM7.92802 13.3297L12.766 16.1229L7.92801 18.9161C7.75605 19.0154 7.69714 19.2352 7.79642 19.4072L8.83005 21.1975C8.92933 21.3695 9.14921 21.4284 9.32117 21.3291L14.1591 18.5359L14.1591 24.0774C14.1591 24.2759 14.3201 24.4369 14.5186 24.4369H16.5859C16.7845 24.4369 16.9454 24.2759 16.9454 24.0774L16.9455 15.3196L9.32118 10.9167C9.14922 10.8174 8.92932 10.8763 8.83003 11.0483L7.79642 12.8386C7.69714 13.0105 7.75606 13.2304 7.92802 13.3297Z" fill="#26D966"/>
</svg>
