<svg width="32" height="32" viewBox="0 0 32 32" fill="none" xmlns="http://www.w3.org/2000/svg">
<g clip-path="url(#clip0_9_2)">
<path d="M24 0H8C3.58172 0 0 3.58172 0 8V24C0 28.4183 3.58172 32 8 32H24C28.4183 32 32 28.4183 32 24V8C32 3.58172 28.4183 0 24 0Z" fill="#18181B"/>
<path d="M8.66675 16L8.66675 10.5L23.3334 5L23.3334 10.5L8.66675 16Z" fill="url(#paint0_linear_9_2)"/>
<path d="M8.66675 27L8.66675 21.5L23.3334 16L23.3334 21.5L8.66675 27Z" fill="url(#paint1_linear_9_2)"/>
<path opacity="0.7" d="M8.66675 16L8.66675 10.5L23.3334 16L23.3334 21.5L8.66675 16Z" fill="url(#paint2_linear_9_2)"/>
</g>
<defs>
<linearGradient id="paint0_linear_9_2" x1="8.66675" y1="16" x2="1064.67" y2="-1392" gradientUnits="userSpaceOnUse">
<stop stop-color="#818CF8"/>
<stop offset="1" stop-color="#6366F1"/>
</linearGradient>
<linearGradient id="paint1_linear_9_2" x1="8.66675" y1="27" x2="1064.67" y2="-1381" gradientUnits="userSpaceOnUse">
<stop stop-color="#818CF8"/>
<stop offset="1" stop-color="#6366F1"/>
</linearGradient>
<linearGradient id="paint2_linear_9_2" x1="8.66675" y1="21.5" x2="1064.67" y2="-1386.5" gradientUnits="userSpaceOnUse">
<stop stop-color="#818CF8"/>
<stop offset="1" stop-color="#6366F1"/>
</linearGradient>
<clipPath id="clip0_9_2">
<rect width="32" height="32" fill="white"/>
</clipPath>
</defs>
</svg>
