<svg width="1200" height="630" viewBox="0 0 1200 630" fill="none" xmlns="http://www.w3.org/2000/svg">
<rect width="1200" height="630" fill="#27272A"/>
<path d="M527.334 367V359.448L546.214 339.864H528.102V332.696H557.734V340.248L538.534 359.832H558.246V367H527.334Z" fill="white"/>
<path d="M487.382 367L499.606 349.592L487.702 332.696H497.878L505.238 343.704L512.342 332.696H522.774L510.934 349.656L523.094 367H512.918L505.366 355.352L497.75 367H487.382Z" fill="white"/>
<path d="M464.037 367V332.696H473.125L473.445 342.68L472.741 342.488C473.295 339.032 474.277 336.536 475.685 335C477.093 333.464 479.034 332.696 481.509 332.696H484.645V340.632H481.509C479.717 340.632 478.245 340.867 477.093 341.336C475.941 341.805 475.066 342.552 474.469 343.576C473.914 344.6 473.637 345.987 473.637 347.736V367H464.037Z" fill="white"/>
<path d="M436.213 367.768C432.671 367.768 429.77 366.957 427.509 365.336C425.29 363.672 424.181 361.368 424.181 358.424C424.181 355.395 425.119 353.069 426.997 351.448C428.917 349.784 431.733 348.568 435.445 347.8L446.517 345.624C446.517 343.405 446.005 341.741 444.981 340.632C443.999 339.48 442.57 338.904 440.693 338.904C438.858 338.904 437.429 339.331 436.405 340.184C435.381 340.995 434.719 342.211 434.421 343.832L424.757 343.384C425.397 339.629 427.082 336.792 429.813 334.872C432.586 332.909 436.213 331.928 440.693 331.928C445.813 331.928 449.653 333.144 452.213 335.576C454.815 338.008 456.117 341.571 456.117 346.264V357.976C456.117 358.957 456.266 359.619 456.565 359.96C456.906 360.259 457.397 360.408 458.037 360.408H458.997V367C458.698 367.085 458.207 367.171 457.525 367.256C456.885 367.341 456.245 367.384 455.605 367.384C454.239 367.384 452.959 367.149 451.765 366.68C450.613 366.211 449.674 365.421 448.949 364.312C448.223 363.16 447.861 361.539 447.861 359.448L448.693 360.088C448.266 361.624 447.498 362.968 446.389 364.12C445.322 365.272 443.914 366.168 442.165 366.808C440.458 367.448 438.474 367.768 436.213 367.768ZM438.517 361.176C440.095 361.176 441.482 360.877 442.677 360.28C443.871 359.64 444.81 358.723 445.493 357.528C446.175 356.333 446.517 354.925 446.517 353.304V351.64L438.709 353.304C437.173 353.603 435.999 354.115 435.189 354.84C434.421 355.523 434.037 356.419 434.037 357.528C434.037 358.68 434.421 359.576 435.189 360.216C435.957 360.856 437.066 361.176 438.517 361.176Z" fill="white"/>
<path d="M368.611 367V321.56H381.603L393.187 354.648L404.707 321.56H417.699V367H407.971V337.56L397.283 366.872H388.963L378.339 337.56V367H368.611Z" fill="white"/>
<path d="M342.434 367C339.618 367 337.421 366.296 335.842 364.888C334.263 363.48 333.474 361.197 333.474 358.04V321.56H343.074V357.016C343.074 358.04 343.309 358.765 343.778 359.192C344.247 359.619 344.93 359.832 345.826 359.832H348.13V367H342.434Z" fill="white"/>
<path d="M310.461 367.768C306.962 367.768 303.911 367.043 301.309 365.592C298.749 364.099 296.743 362.008 295.293 359.32C293.885 356.632 293.181 353.475 293.181 349.848C293.181 346.221 293.885 343.085 295.293 340.44C296.743 337.752 298.749 335.661 301.309 334.168C303.869 332.675 306.898 331.928 310.397 331.928C313.81 331.928 316.775 332.675 319.293 334.168C321.81 335.661 323.751 337.795 325.117 340.568C326.525 343.341 327.229 346.648 327.229 350.488V352.408H303.101C303.229 355.139 303.954 357.165 305.277 358.488C306.642 359.811 308.434 360.472 310.653 360.472C312.274 360.472 313.618 360.131 314.685 359.448C315.794 358.765 316.583 357.72 317.053 356.312L326.717 356.888C325.821 360.301 323.922 362.968 321.021 364.888C318.119 366.808 314.599 367.768 310.461 367.768ZM303.101 346.52H317.373C317.245 344.003 316.541 342.125 315.261 340.888C314.023 339.651 312.402 339.032 310.397 339.032C308.391 339.032 306.727 339.693 305.405 341.016C304.125 342.296 303.357 344.131 303.101 346.52Z" fill="white"/>
<path d="M268.051 367.768C264.509 367.768 261.736 366.637 259.731 364.376C257.768 362.072 256.787 358.872 256.787 354.776V332.696H266.387V352.536C266.387 355.181 266.792 357.123 267.603 358.36C268.413 359.555 269.693 360.152 271.443 360.152C273.405 360.152 274.92 359.491 275.987 358.168C277.096 356.803 277.651 354.776 277.651 352.088V332.696H287.251V367H278.483L278.227 357.144L279.443 357.4C278.931 360.813 277.715 363.395 275.795 365.144C273.875 366.893 271.293 367.768 268.051 367.768Z" fill="white"/>
<path d="M199.974 367V332.696H208.614L208.934 340.952L208.038 340.568C208.507 338.733 209.211 337.176 210.15 335.896C211.131 334.616 212.305 333.635 213.67 332.952C215.035 332.269 216.529 331.928 218.15 331.928C221.009 331.928 223.313 332.76 225.062 334.424C226.854 336.088 228.006 338.328 228.518 341.144L227.302 341.208C227.686 339.203 228.347 337.517 229.286 336.152C230.267 334.744 231.462 333.699 232.87 333.016C234.278 332.291 235.857 331.928 237.606 331.928C239.995 331.928 242.043 332.419 243.75 333.4C245.457 334.381 246.779 335.853 247.718 337.816C248.657 339.736 249.126 342.104 249.126 344.92V367H239.526V347.608C239.526 344.92 239.121 342.915 238.31 341.592C237.499 340.227 236.177 339.544 234.342 339.544C233.19 339.544 232.209 339.864 231.398 340.504C230.587 341.144 229.947 342.083 229.478 343.32C229.051 344.515 228.838 345.987 228.838 347.736V367H220.198V347.736C220.198 345.091 219.814 343.064 219.046 341.656C218.278 340.248 216.955 339.544 215.078 339.544C213.926 339.544 212.923 339.864 212.07 340.504C211.259 341.144 210.641 342.083 210.214 343.32C209.787 344.557 209.574 346.029 209.574 347.736V367H199.974Z" fill="white"/>
<path d="M172.15 367.768C168.609 367.768 165.707 366.957 163.446 365.336C161.227 363.672 160.118 361.368 160.118 358.424C160.118 355.395 161.057 353.069 162.934 351.448C164.854 349.784 167.67 348.568 171.382 347.8L182.454 345.624C182.454 343.405 181.942 341.741 180.918 340.632C179.937 339.48 178.507 338.904 176.63 338.904C174.795 338.904 173.366 339.331 172.342 340.184C171.318 340.995 170.657 342.211 170.358 343.832L160.694 343.384C161.334 339.629 163.019 336.792 165.75 334.872C168.523 332.909 172.15 331.928 176.63 331.928C181.75 331.928 185.59 333.144 188.15 335.576C190.753 338.008 192.054 341.571 192.054 346.264V357.976C192.054 358.957 192.203 359.619 192.502 359.96C192.843 360.259 193.334 360.408 193.974 360.408H194.934V367C194.636 367.085 194.145 367.171 193.462 367.256C192.822 367.341 192.182 367.384 191.542 367.384C190.177 367.384 188.897 367.149 187.702 366.68C186.55 366.211 185.611 365.421 184.886 364.312C184.161 363.16 183.798 361.539 183.798 359.448L184.63 360.088C184.204 361.624 183.436 362.968 182.326 364.12C181.26 365.272 179.852 366.168 178.102 366.808C176.396 367.448 174.411 367.768 172.15 367.768ZM174.454 361.176C176.033 361.176 177.419 360.877 178.614 360.28C179.809 359.64 180.747 358.723 181.43 357.528C182.113 356.333 182.454 354.925 182.454 353.304V351.64L174.646 353.304C173.11 353.603 171.937 354.115 171.126 354.84C170.358 355.523 169.974 356.419 169.974 357.528C169.974 358.68 170.358 359.576 171.126 360.216C171.894 360.856 173.003 361.176 174.454 361.176Z" fill="white"/>
<path d="M136.72 368.024C132.795 368.024 129.424 367.363 126.608 366.04C123.792 364.717 121.595 362.861 120.016 360.472C118.437 358.083 117.541 355.267 117.328 352.024L127.12 351.576C127.376 353.368 127.888 354.904 128.656 356.184C129.467 357.421 130.533 358.36 131.856 359C133.221 359.64 134.885 359.96 136.848 359.96C138.469 359.96 139.835 359.768 140.944 359.384C142.096 359 142.971 358.424 143.568 357.656C144.165 356.845 144.464 355.864 144.464 354.712C144.464 353.645 144.208 352.728 143.696 351.96C143.184 351.149 142.203 350.424 140.752 349.784C139.301 349.101 137.168 348.44 134.352 347.8C130.469 346.904 127.333 345.901 124.944 344.792C122.597 343.683 120.891 342.296 119.824 340.632C118.757 338.925 118.224 336.792 118.224 334.232C118.224 331.501 118.885 329.112 120.208 327.064C121.573 325.016 123.536 323.416 126.096 322.264C128.656 321.112 131.707 320.536 135.248 320.536C139.003 320.536 142.181 321.197 144.784 322.52C147.387 323.843 149.413 325.656 150.864 327.96C152.357 330.264 153.253 332.909 153.552 335.896L143.824 336.408C143.696 334.829 143.269 333.464 142.544 332.312C141.819 331.117 140.837 330.2 139.6 329.56C138.363 328.92 136.869 328.6 135.12 328.6C132.901 328.6 131.152 329.091 129.872 330.072C128.635 331.053 128.016 332.333 128.016 333.912C128.016 335.021 128.293 335.96 128.848 336.728C129.445 337.453 130.405 338.093 131.728 338.648C133.093 339.203 135.013 339.736 137.488 340.248C141.712 341.101 145.04 342.189 147.472 343.512C149.947 344.792 151.696 346.328 152.72 348.12C153.744 349.912 154.256 351.96 154.256 354.264C154.256 357.08 153.531 359.533 152.08 361.624C150.672 363.672 148.645 365.251 146 366.36C143.397 367.469 140.304 368.024 136.72 368.024Z" fill="white"/>
<path d="M642.718 418.384C641.545 418.384 640.5 418.128 639.582 417.616C638.665 417.083 637.961 416.357 637.47 415.44L637.374 418H634.942V395.28H637.63V403.408C638.057 402.704 638.718 402.075 639.614 401.52C640.51 400.944 641.545 400.656 642.718 400.656C644.212 400.656 645.502 401.019 646.59 401.744C647.678 402.469 648.51 403.493 649.086 404.816C649.684 406.139 649.982 407.707 649.982 409.52C649.982 411.333 649.684 412.901 649.086 414.224C648.51 415.547 647.678 416.571 646.59 417.296C645.502 418.021 644.212 418.384 642.718 418.384ZM642.558 415.824C643.988 415.824 645.108 415.259 645.918 414.128C646.75 412.997 647.166 411.461 647.166 409.52C647.166 407.557 646.75 406.021 645.918 404.912C645.108 403.781 644.009 403.216 642.622 403.216C641.577 403.216 640.681 403.472 639.934 403.984C639.188 404.475 638.612 405.189 638.206 406.128C637.822 407.067 637.63 408.197 637.63 409.52C637.63 410.8 637.822 411.92 638.206 412.88C638.612 413.819 639.177 414.544 639.902 415.056C640.649 415.568 641.534 415.824 642.558 415.824Z" fill="#A1A1AA"/>
<path d="M622.763 418.384C621.163 418.384 619.776 418.021 618.603 417.296C617.451 416.571 616.555 415.547 615.915 414.224C615.296 412.88 614.987 411.312 614.987 409.52C614.987 407.728 615.296 406.171 615.915 404.848C616.555 403.525 617.44 402.501 618.571 401.776C619.723 401.029 621.077 400.656 622.635 400.656C624.107 400.656 625.408 401.008 626.539 401.712C627.669 402.395 628.555 403.397 629.195 404.72C629.835 406.043 630.155 407.653 630.155 409.552V410.352H617.803C617.909 412.165 618.389 413.531 619.243 414.448C620.117 415.365 621.291 415.824 622.763 415.824C623.872 415.824 624.779 415.568 625.483 415.056C626.208 414.523 626.709 413.829 626.987 412.976L629.867 413.2C629.419 414.715 628.565 415.963 627.307 416.944C626.069 417.904 624.555 418.384 622.763 418.384ZM617.803 407.984H627.211C627.083 406.341 626.603 405.136 625.771 404.368C624.939 403.6 623.893 403.216 622.635 403.216C621.333 403.216 620.256 403.621 619.403 404.432C618.571 405.221 618.037 406.405 617.803 407.984Z" fill="#A1A1AA"/>
<path d="M597.143 418L594.647 395.28H597.527L599.639 416.4H599.319L601.815 397.84H604.759L607.255 416.4H606.935L609.047 395.28H611.927L609.431 418H605.271L602.903 400.08H603.671L601.303 418H597.143Z" fill="#A1A1AA"/>
<path d="M562.608 418V401.04H564.848L565.104 405.328L564.848 405.264C565.062 403.813 565.52 402.747 566.224 402.064C566.95 401.381 567.91 401.04 569.104 401.04H572.592V403.472H569.136C568.304 403.472 567.6 403.643 567.024 403.984C566.47 404.304 566.043 404.784 565.744 405.424C565.446 406.043 565.296 406.821 565.296 407.76V418H562.608ZM558.192 418V415.632H570.672V418H558.192ZM558.192 403.408V401.04H564.08V403.408H558.192Z" fill="#A1A1AA"/>
<path d="M545.725 418.384C544.168 418.384 542.802 418.021 541.629 417.296C540.477 416.571 539.581 415.547 538.941 414.224C538.301 412.88 537.981 411.312 537.981 409.52C537.981 407.707 538.301 406.139 538.941 404.816C539.581 403.493 540.477 402.469 541.629 401.744C542.802 401.019 544.168 400.656 545.725 400.656C547.282 400.656 548.637 401.019 549.789 401.744C550.962 402.469 551.869 403.493 552.509 404.816C553.149 406.139 553.469 407.707 553.469 409.52C553.469 411.312 553.149 412.88 552.509 414.224C551.869 415.547 550.962 416.571 549.789 417.296C548.637 418.021 547.282 418.384 545.725 418.384ZM545.725 415.824C547.282 415.824 548.488 415.269 549.341 414.16C550.216 413.029 550.653 411.483 550.653 409.52C550.653 407.557 550.216 406.021 549.341 404.912C548.488 403.781 547.282 403.216 545.725 403.216C544.168 403.216 542.952 403.781 542.077 404.912C541.224 406.021 540.797 407.557 540.797 409.52C540.797 411.483 541.224 413.029 542.077 414.16C542.952 415.269 544.168 415.824 545.725 415.824Z" fill="#A1A1AA"/>
<path d="M525.481 418.384C523.988 418.384 522.697 418.021 521.609 417.296C520.521 416.571 519.679 415.547 519.081 414.224C518.505 412.901 518.217 411.333 518.217 409.52C518.217 407.707 518.505 406.139 519.081 404.816C519.679 403.493 520.521 402.469 521.609 401.744C522.697 401.019 523.988 400.656 525.481 400.656C526.676 400.656 527.721 400.944 528.617 401.52C529.513 402.075 530.164 402.704 530.569 403.408V395.28H533.257V418H530.825L530.729 415.44C530.26 416.357 529.567 417.083 528.649 417.616C527.732 418.128 526.676 418.384 525.481 418.384ZM525.641 415.824C526.665 415.824 527.54 415.568 528.265 415.056C529.012 414.544 529.577 413.819 529.961 412.88C530.367 411.92 530.569 410.8 530.569 409.52C530.569 408.197 530.367 407.067 529.961 406.128C529.577 405.189 529.012 404.475 528.265 403.984C527.519 403.472 526.623 403.216 525.577 403.216C524.191 403.216 523.081 403.781 522.249 404.912C521.439 406.021 521.033 407.557 521.033 409.52C521.033 411.461 521.439 412.997 522.249 414.128C523.081 415.259 524.212 415.824 525.641 415.824Z" fill="#A1A1AA"/>
<path d="M507.638 418.384C506.038 418.384 504.651 418.021 503.478 417.296C502.326 416.571 501.43 415.547 500.79 414.224C500.171 412.88 499.862 411.312 499.862 409.52C499.862 407.728 500.171 406.171 500.79 404.848C501.43 403.525 502.315 402.501 503.446 401.776C504.598 401.029 505.952 400.656 507.51 400.656C508.982 400.656 510.283 401.008 511.414 401.712C512.544 402.395 513.43 403.397 514.07 404.72C514.71 406.043 515.03 407.653 515.03 409.552V410.352H502.678C502.784 412.165 503.264 413.531 504.118 414.448C504.992 415.365 506.166 415.824 507.638 415.824C508.747 415.824 509.654 415.568 510.358 415.056C511.083 414.523 511.584 413.829 511.862 412.976L514.742 413.2C514.294 414.715 513.44 415.963 512.182 416.944C510.944 417.904 509.43 418.384 507.638 418.384ZM502.678 407.984H512.086C511.958 406.341 511.478 405.136 510.646 404.368C509.814 403.6 508.768 403.216 507.51 403.216C506.208 403.216 505.131 403.621 504.278 404.432C503.446 405.221 502.912 406.405 502.678 407.984Z" fill="#A1A1AA"/>
<path d="M486.466 418L480.162 401.04H483.106L488.162 415.248L493.218 401.04H496.162L489.858 418H486.466Z" fill="#A1A1AA"/>
<path d="M468.111 418V399.824C468.111 399.141 467.919 398.608 467.535 398.224C467.151 397.84 466.618 397.648 465.935 397.648H461.935V395.28H466.063C467.62 395.28 468.794 395.685 469.583 396.496C470.394 397.285 470.799 398.459 470.799 400.016V418H468.111ZM461.295 418V415.632H476.655V418H461.295Z" fill="#A1A1AA"/>
<path d="M449.787 418.384C448.23 418.384 446.865 418.021 445.691 417.296C444.539 416.571 443.643 415.547 443.003 414.224C442.363 412.88 442.043 411.312 442.043 409.52C442.043 407.707 442.363 406.139 443.003 404.816C443.643 403.493 444.539 402.469 445.691 401.744C446.865 401.019 448.23 400.656 449.787 400.656C451.345 400.656 452.699 401.019 453.851 401.744C455.025 402.469 455.931 403.493 456.571 404.816C457.211 406.139 457.531 407.707 457.531 409.52C457.531 411.312 457.211 412.88 456.571 414.224C455.931 415.547 455.025 416.571 453.851 417.296C452.699 418.021 451.345 418.384 449.787 418.384ZM449.787 415.824C451.345 415.824 452.55 415.269 453.403 414.16C454.278 413.029 454.715 411.483 454.715 409.52C454.715 407.557 454.278 406.021 453.403 404.912C452.55 403.781 451.345 403.216 449.787 403.216C448.23 403.216 447.014 403.781 446.139 404.912C445.286 406.021 444.859 407.557 444.859 409.52C444.859 411.483 445.286 413.029 446.139 414.16C447.014 415.269 448.23 415.824 449.787 415.824Z" fill="#A1A1AA"/>
<path d="M428.904 418L422.6 401.04H425.544L430.6 415.248L435.656 401.04H438.6L432.296 418H428.904Z" fill="#A1A1AA"/>
<path d="M404.5 418V401.04H406.965L407.06 405.36L406.741 405.072C406.954 404.069 407.338 403.248 407.892 402.608C408.468 401.947 409.151 401.456 409.94 401.136C410.73 400.816 411.562 400.656 412.436 400.656C413.738 400.656 414.815 400.944 415.668 401.52C416.543 402.096 417.204 402.875 417.652 403.856C418.1 404.816 418.324 405.893 418.324 407.088V418H415.637V407.856C415.637 406.277 415.327 405.083 414.708 404.272C414.09 403.44 413.141 403.024 411.861 403.024C410.986 403.024 410.196 403.216 409.492 403.6C408.788 403.963 408.223 404.507 407.797 405.232C407.391 405.936 407.189 406.811 407.189 407.856V418H404.5Z" fill="#A1A1AA"/>
<path d="M392.513 418.384C390.913 418.384 389.526 418.021 388.353 417.296C387.201 416.571 386.305 415.547 385.665 414.224C385.046 412.88 384.737 411.312 384.737 409.52C384.737 407.728 385.046 406.171 385.665 404.848C386.305 403.525 387.19 402.501 388.321 401.776C389.473 401.029 390.827 400.656 392.385 400.656C393.857 400.656 395.158 401.008 396.289 401.712C397.419 402.395 398.305 403.397 398.945 404.72C399.585 406.043 399.905 407.653 399.905 409.552V410.352H387.553C387.659 412.165 388.139 413.531 388.993 414.448C389.867 415.365 391.041 415.824 392.513 415.824C393.622 415.824 394.529 415.568 395.233 415.056C395.958 414.523 396.459 413.829 396.737 412.976L399.617 413.2C399.169 414.715 398.315 415.963 397.057 416.944C395.819 417.904 394.305 418.384 392.513 418.384ZM387.553 407.984H396.961C396.833 406.341 396.353 405.136 395.521 404.368C394.689 403.6 393.643 403.216 392.385 403.216C391.083 403.216 390.006 403.621 389.153 404.432C388.321 405.221 387.787 406.405 387.553 407.984Z" fill="#A1A1AA"/>
<path d="M373.357 418.384C371.885 418.384 370.616 418.128 369.549 417.616C368.483 417.104 367.64 416.421 367.021 415.568C366.424 414.693 366.083 413.723 365.997 412.656L368.813 412.464C368.984 413.509 369.443 414.331 370.189 414.928C370.957 415.525 372.013 415.824 373.357 415.824C374.616 415.824 375.587 415.643 376.269 415.28C376.973 414.917 377.325 414.352 377.325 413.584C377.325 413.093 377.208 412.688 376.973 412.368C376.739 412.048 376.301 411.781 375.661 411.568C375.021 411.333 374.083 411.109 372.845 410.896C371.203 410.597 369.912 410.235 368.973 409.808C368.056 409.36 367.405 408.805 367.021 408.144C366.637 407.483 366.445 406.693 366.445 405.776C366.445 404.795 366.691 403.92 367.181 403.152C367.672 402.384 368.397 401.776 369.357 401.328C370.317 400.88 371.491 400.656 372.877 400.656C374.285 400.656 375.459 400.912 376.397 401.424C377.357 401.915 378.115 402.576 378.669 403.408C379.224 404.219 379.587 405.115 379.757 406.096L376.941 406.288C376.813 405.691 376.568 405.168 376.205 404.72C375.864 404.251 375.405 403.888 374.829 403.632C374.275 403.355 373.613 403.216 372.845 403.216C371.608 403.216 370.691 403.461 370.093 403.952C369.496 404.443 369.197 405.051 369.197 405.776C369.197 406.352 369.336 406.811 369.613 407.152C369.891 407.493 370.339 407.771 370.957 407.984C371.576 408.176 372.397 408.357 373.421 408.528C375.171 408.805 376.525 409.168 377.485 409.616C378.445 410.043 379.117 410.576 379.501 411.216C379.885 411.856 380.077 412.645 380.077 413.584C380.077 414.587 379.779 415.451 379.181 416.176C378.605 416.88 377.805 417.424 376.781 417.808C375.779 418.192 374.637 418.384 373.357 418.384Z" fill="#A1A1AA"/>
<path d="M354.138 418.384C352.538 418.384 351.151 418.021 349.978 417.296C348.826 416.571 347.93 415.547 347.29 414.224C346.671 412.88 346.362 411.312 346.362 409.52C346.362 407.728 346.671 406.171 347.29 404.848C347.93 403.525 348.815 402.501 349.946 401.776C351.098 401.029 352.452 400.656 354.01 400.656C355.482 400.656 356.783 401.008 357.914 401.712C359.044 402.395 359.93 403.397 360.57 404.72C361.21 406.043 361.53 407.653 361.53 409.552V410.352H349.178C349.284 412.165 349.764 413.531 350.618 414.448C351.492 415.365 352.666 415.824 354.138 415.824C355.247 415.824 356.154 415.568 356.858 415.056C357.583 414.523 358.084 413.829 358.362 412.976L361.242 413.2C360.794 414.715 359.94 415.963 358.682 416.944C357.444 417.904 355.93 418.384 354.138 418.384ZM349.178 407.984H358.586C358.458 406.341 357.978 405.136 357.146 404.368C356.314 403.6 355.268 403.216 354.01 403.216C352.708 403.216 351.631 403.621 350.778 404.432C349.946 405.221 349.412 406.405 349.178 407.984Z" fill="#A1A1AA"/>
<path d="M327.942 418V395.28H333.318C335.281 395.28 336.988 395.728 338.438 396.624C339.91 397.499 341.041 398.789 341.83 400.496C342.641 402.181 343.046 404.24 343.046 406.672C343.046 409.104 342.641 411.163 341.83 412.848C341.041 414.533 339.91 415.813 338.438 416.688C336.988 417.563 335.281 418 333.318 418H327.942ZM330.694 415.312H333.158C335.377 415.312 337.094 414.597 338.31 413.168C339.548 411.717 340.166 409.552 340.166 406.672C340.166 403.792 339.548 401.627 338.31 400.176C337.094 398.704 335.377 397.968 333.158 397.968H330.694V415.312Z" fill="#A1A1AA"/>
<path d="M296.575 418.384C294.975 418.384 293.589 418.021 292.415 417.296C291.263 416.571 290.367 415.547 289.727 414.224C289.109 412.88 288.799 411.312 288.799 409.52C288.799 407.728 289.109 406.171 289.727 404.848C290.367 403.525 291.253 402.501 292.383 401.776C293.535 401.029 294.89 400.656 296.447 400.656C297.919 400.656 299.221 401.008 300.351 401.712C301.482 402.395 302.367 403.397 303.007 404.72C303.647 406.043 303.967 407.653 303.967 409.552V410.352H291.615C291.722 412.165 292.202 413.531 293.055 414.448C293.93 415.365 295.103 415.824 296.575 415.824C297.685 415.824 298.591 415.568 299.295 415.056C300.021 414.523 300.522 413.829 300.799 412.976L303.679 413.2C303.231 414.715 302.378 415.963 301.119 416.944C299.882 417.904 298.367 418.384 296.575 418.384ZM291.615 407.984H301.023C300.895 406.341 300.415 405.136 299.583 404.368C298.751 403.6 297.706 403.216 296.447 403.216C295.146 403.216 294.069 403.621 293.215 404.432C292.383 405.221 291.85 406.405 291.615 407.984Z" fill="#A1A1AA"/>
<path d="M255.608 418V401.04H257.848L258.104 405.328L257.848 405.264C258.062 403.813 258.52 402.747 259.224 402.064C259.95 401.381 260.91 401.04 262.104 401.04H265.592V403.472H262.136C261.304 403.472 260.6 403.643 260.024 403.984C259.47 404.304 259.043 404.784 258.744 405.424C258.446 406.043 258.296 406.821 258.296 407.76V418H255.608ZM251.192 418V415.632H263.672V418H251.192ZM251.192 403.408V401.04H257.08V403.408H251.192Z" fill="#A1A1AA"/>
<path d="M239.013 418.384C237.413 418.384 236.026 418.021 234.853 417.296C233.701 416.571 232.805 415.547 232.165 414.224C231.546 412.88 231.237 411.312 231.237 409.52C231.237 407.728 231.546 406.171 232.165 404.848C232.805 403.525 233.69 402.501 234.821 401.776C235.973 401.029 237.327 400.656 238.885 400.656C240.357 400.656 241.658 401.008 242.789 401.712C243.919 402.395 244.805 403.397 245.445 404.72C246.085 406.043 246.405 407.653 246.405 409.552V410.352H234.053C234.159 412.165 234.639 413.531 235.493 414.448C236.367 415.365 237.541 415.824 239.013 415.824C240.122 415.824 241.029 415.568 241.733 415.056C242.458 414.523 242.959 413.829 243.237 412.976L246.117 413.2C245.669 414.715 244.815 415.963 243.557 416.944C242.319 417.904 240.805 418.384 239.013 418.384ZM234.053 407.984H243.461C243.333 406.341 242.853 405.136 242.021 404.368C241.189 403.6 240.143 403.216 238.885 403.216C237.583 403.216 236.506 403.621 235.653 404.432C234.821 405.221 234.287 406.405 234.053 407.984Z" fill="#A1A1AA"/>
<path d="M212.625 418V401.04H215.089L215.185 405.36L214.865 405.072C215.079 404.069 215.463 403.248 216.017 402.608C216.593 401.947 217.276 401.456 218.065 401.136C218.855 400.816 219.687 400.656 220.561 400.656C221.863 400.656 222.94 400.944 223.793 401.52C224.668 402.096 225.329 402.875 225.777 403.856C226.225 404.816 226.449 405.893 226.449 407.088V418H223.761V407.856C223.761 406.277 223.452 405.083 222.833 404.272C222.215 403.44 221.265 403.024 219.985 403.024C219.111 403.024 218.321 403.216 217.617 403.6C216.913 403.963 216.348 404.507 215.921 405.232C215.516 405.936 215.313 406.811 215.313 407.856V418H212.625Z" fill="#A1A1AA"/>
<path d="M200.254 423.184C199.038 423.184 197.939 422.981 196.958 422.576C195.977 422.171 195.155 421.595 194.494 420.848C193.833 420.101 193.385 419.237 193.15 418.256L195.966 418.064C196.222 418.853 196.67 419.472 197.31 419.92C197.971 420.389 198.953 420.624 200.254 420.624C201.79 420.624 202.963 420.315 203.774 419.696C204.606 419.077 205.022 418.149 205.022 416.912V414.16C204.617 415.056 203.966 415.771 203.07 416.304C202.174 416.837 201.171 417.104 200.062 417.104C198.633 417.104 197.353 416.752 196.222 416.048C195.113 415.344 194.238 414.373 193.598 413.136C192.979 411.899 192.67 410.48 192.67 408.88C192.67 407.259 192.979 405.84 193.598 404.624C194.217 403.387 195.07 402.416 196.158 401.712C197.267 401.008 198.526 400.656 199.934 400.656C201.129 400.656 202.195 400.933 203.134 401.488C204.094 402.043 204.766 402.789 205.15 403.728V401.04H207.71V416.848C207.71 418.171 207.411 419.301 206.814 420.24C206.217 421.2 205.363 421.925 204.254 422.416C203.145 422.928 201.811 423.184 200.254 423.184ZM200.19 414.544C201.641 414.544 202.803 414.043 203.678 413.04C204.553 412.016 205.001 410.629 205.022 408.88C205.043 407.707 204.851 406.704 204.446 405.872C204.062 405.019 203.497 404.368 202.75 403.92C202.025 403.451 201.171 403.216 200.19 403.216C198.697 403.216 197.534 403.728 196.702 404.752C195.891 405.755 195.486 407.131 195.486 408.88C195.486 410.629 195.902 412.016 196.734 413.04C197.587 414.043 198.739 414.544 200.19 414.544Z" fill="#A1A1AA"/>
<path d="M180.938 418V401.04H183.626V418H180.938ZM174.122 418V415.632H189.482V418H174.122ZM174.442 403.408V401.04H183.626V403.408H174.442ZM180.682 398.384V395.248H183.498V398.384H180.682Z" fill="#A1A1AA"/>
<path d="M162.295 418.384C160.823 418.384 159.553 418.128 158.487 417.616C157.42 417.104 156.577 416.421 155.959 415.568C155.361 414.693 155.02 413.723 154.935 412.656L157.751 412.464C157.921 413.509 158.38 414.331 159.127 414.928C159.895 415.525 160.951 415.824 162.295 415.824C163.553 415.824 164.524 415.643 165.207 415.28C165.911 414.917 166.263 414.352 166.263 413.584C166.263 413.093 166.145 412.688 165.911 412.368C165.676 412.048 165.239 411.781 164.599 411.568C163.959 411.333 163.02 411.109 161.783 410.896C160.14 410.597 158.849 410.235 157.911 409.808C156.993 409.36 156.343 408.805 155.959 408.144C155.575 407.483 155.383 406.693 155.383 405.776C155.383 404.795 155.628 403.92 156.119 403.152C156.609 402.384 157.335 401.776 158.295 401.328C159.255 400.88 160.428 400.656 161.815 400.656C163.223 400.656 164.396 400.912 165.335 401.424C166.295 401.915 167.052 402.576 167.607 403.408C168.161 404.219 168.524 405.115 168.695 406.096L165.879 406.288C165.751 405.691 165.505 405.168 165.143 404.72C164.801 404.251 164.343 403.888 163.767 403.632C163.212 403.355 162.551 403.216 161.783 403.216C160.545 403.216 159.628 403.461 159.031 403.952C158.433 404.443 158.135 405.051 158.135 405.776C158.135 406.352 158.273 406.811 158.551 407.152C158.828 407.493 159.276 407.771 159.895 407.984C160.513 408.176 161.335 408.357 162.359 408.528C164.108 408.805 165.463 409.168 166.423 409.616C167.383 410.043 168.055 410.576 168.439 411.216C168.823 411.856 169.015 412.645 169.015 413.584C169.015 414.587 168.716 415.451 168.119 416.176C167.543 416.88 166.743 417.424 165.719 417.808C164.716 418.192 163.575 418.384 162.295 418.384Z" fill="#A1A1AA"/>
<path d="M143.075 418.384C141.475 418.384 140.089 418.021 138.915 417.296C137.763 416.571 136.867 415.547 136.227 414.224C135.609 412.88 135.299 411.312 135.299 409.52C135.299 407.728 135.609 406.171 136.227 404.848C136.867 403.525 137.753 402.501 138.883 401.776C140.035 401.029 141.39 400.656 142.947 400.656C144.419 400.656 145.721 401.008 146.851 401.712C147.982 402.395 148.867 403.397 149.507 404.72C150.147 406.043 150.467 407.653 150.467 409.552V410.352H138.115C138.222 412.165 138.702 413.531 139.555 414.448C140.43 415.365 141.603 415.824 143.075 415.824C144.185 415.824 145.091 415.568 145.795 415.056C146.521 414.523 147.022 413.829 147.299 412.976L150.179 413.2C149.731 414.715 148.878 415.963 147.619 416.944C146.382 417.904 144.867 418.384 143.075 418.384ZM138.115 407.984H147.523C147.395 406.341 146.915 405.136 146.083 404.368C145.251 403.6 144.206 403.216 142.947 403.216C141.646 403.216 140.569 403.621 139.715 404.432C138.883 405.221 138.35 406.405 138.115 407.984Z" fill="#A1A1AA"/>
<path d="M116.88 418V395.28H122.256C124.219 395.28 125.925 395.728 127.376 396.624C128.848 397.499 129.979 398.789 130.768 400.496C131.579 402.181 131.984 404.24 131.984 406.672C131.984 409.104 131.579 411.163 130.768 412.848C129.979 414.533 128.848 415.813 127.376 416.688C125.925 417.563 124.219 418 122.256 418H116.88ZM119.632 415.312H122.096C124.315 415.312 126.032 414.597 127.248 413.168C128.485 411.717 129.104 409.552 129.104 406.672C129.104 403.792 128.485 401.627 127.248 400.176C126.032 398.704 124.315 397.968 122.096 397.968H119.632V415.312Z" fill="#A1A1AA"/>
<path d="M194 465H134C122.954 465 114 473.954 114 485C114 496.046 122.954 505 134 505H194C205.046 505 214 496.046 214 485C214 473.954 205.046 465 194 465Z" fill="#27272A" stroke="#818CF8" stroke-width="2"/>
<path d="M184.82 481.273V482.409H180.297V481.273H184.82ZM181.615 479.182H182.956V487.5C182.956 487.879 183.011 488.163 183.121 488.352C183.234 488.538 183.378 488.663 183.553 488.727C183.731 488.788 183.918 488.818 184.115 488.818C184.263 488.818 184.384 488.811 184.479 488.795C184.573 488.777 184.649 488.761 184.706 488.75L184.979 489.955C184.888 489.989 184.761 490.023 184.598 490.057C184.435 490.095 184.229 490.114 183.979 490.114C183.6 490.114 183.229 490.032 182.865 489.869C182.505 489.706 182.206 489.458 181.967 489.125C181.732 488.792 181.615 488.371 181.615 487.864V479.182Z" fill="#818CF8"/>
<path d="M175.632 490.182C174.814 490.182 174.11 489.989 173.519 489.602C172.928 489.216 172.473 488.684 172.155 488.006C171.837 487.328 171.678 486.553 171.678 485.682C171.678 484.795 171.841 484.013 172.166 483.335C172.496 482.653 172.954 482.121 173.541 481.739C174.132 481.352 174.822 481.159 175.61 481.159C176.223 481.159 176.776 481.273 177.269 481.5C177.761 481.727 178.164 482.045 178.479 482.455C178.793 482.864 178.988 483.341 179.064 483.886H177.723C177.621 483.489 177.394 483.136 177.041 482.83C176.693 482.519 176.223 482.364 175.632 482.364C175.11 482.364 174.651 482.5 174.257 482.773C173.867 483.042 173.562 483.422 173.343 483.915C173.127 484.403 173.019 484.977 173.019 485.636C173.019 486.311 173.125 486.898 173.337 487.398C173.553 487.898 173.856 488.286 174.246 488.563C174.64 488.839 175.102 488.977 175.632 488.977C175.981 488.977 176.297 488.917 176.581 488.795C176.865 488.674 177.106 488.5 177.303 488.273C177.5 488.045 177.64 487.773 177.723 487.455H179.064C178.988 487.97 178.801 488.434 178.502 488.847C178.206 489.256 177.814 489.581 177.325 489.824C176.841 490.063 176.276 490.182 175.632 490.182Z" fill="#818CF8"/>
<path d="M165.639 490.205C165.086 490.205 164.584 490.1 164.134 489.892C163.683 489.68 163.325 489.375 163.06 488.977C162.795 488.576 162.662 488.091 162.662 487.523C162.662 487.023 162.761 486.617 162.958 486.307C163.155 485.992 163.418 485.746 163.747 485.568C164.077 485.39 164.441 485.258 164.838 485.17C165.24 485.08 165.643 485.008 166.048 484.955C166.579 484.886 167.009 484.835 167.338 484.801C167.672 484.763 167.914 484.701 168.066 484.614C168.221 484.527 168.298 484.375 168.298 484.159V484.114C168.298 483.553 168.145 483.117 167.838 482.807C167.535 482.496 167.075 482.341 166.458 482.341C165.817 482.341 165.316 482.481 164.952 482.761C164.588 483.042 164.333 483.341 164.185 483.659L162.912 483.205C163.139 482.674 163.442 482.261 163.821 481.966C164.204 481.667 164.62 481.458 165.071 481.341C165.526 481.22 165.973 481.159 166.412 481.159C166.692 481.159 167.014 481.193 167.378 481.261C167.745 481.326 168.1 481.46 168.441 481.665C168.785 481.869 169.071 482.178 169.298 482.591C169.526 483.004 169.639 483.557 169.639 484.25V490H168.298V488.818H168.23C168.139 489.008 167.988 489.21 167.776 489.426C167.564 489.642 167.281 489.826 166.929 489.977C166.577 490.129 166.147 490.205 165.639 490.205ZM165.844 489C166.374 489 166.821 488.896 167.185 488.688C167.552 488.479 167.829 488.21 168.014 487.881C168.204 487.551 168.298 487.205 168.298 486.841V485.614C168.242 485.682 168.117 485.744 167.923 485.801C167.734 485.854 167.514 485.902 167.264 485.943C167.018 485.981 166.778 486.015 166.543 486.045C166.312 486.072 166.124 486.095 165.98 486.114C165.632 486.159 165.306 486.233 165.003 486.335C164.704 486.434 164.461 486.583 164.276 486.784C164.094 486.981 164.003 487.25 164.003 487.591C164.003 488.057 164.175 488.409 164.52 488.648C164.869 488.883 165.31 489 165.844 489Z" fill="#818CF8"/>
<path d="M157.418 490.182C156.577 490.182 155.852 489.996 155.242 489.625C154.636 489.25 154.168 488.727 153.838 488.057C153.512 487.383 153.35 486.599 153.35 485.705C153.35 484.811 153.512 484.023 153.838 483.341C154.168 482.655 154.626 482.121 155.213 481.739C155.804 481.352 156.494 481.159 157.281 481.159C157.736 481.159 158.185 481.235 158.628 481.386C159.071 481.538 159.475 481.784 159.838 482.125C160.202 482.462 160.492 482.909 160.708 483.466C160.923 484.023 161.031 484.708 161.031 485.523V486.091H154.304V484.932H159.668C159.668 484.439 159.569 484 159.372 483.614C159.179 483.227 158.903 482.922 158.543 482.699C158.187 482.475 157.766 482.364 157.281 482.364C156.747 482.364 156.285 482.496 155.895 482.761C155.509 483.023 155.211 483.364 155.003 483.784C154.795 484.205 154.691 484.655 154.691 485.136V485.909C154.691 486.568 154.804 487.127 155.031 487.585C155.262 488.04 155.583 488.386 155.992 488.625C156.401 488.86 156.876 488.977 157.418 488.977C157.77 488.977 158.088 488.928 158.372 488.83C158.66 488.727 158.908 488.576 159.117 488.375C159.325 488.17 159.486 487.917 159.6 487.614L160.895 487.977C160.759 488.417 160.53 488.803 160.208 489.136C159.886 489.466 159.488 489.724 159.014 489.909C158.541 490.091 158.009 490.182 157.418 490.182Z" fill="#818CF8"/>
<path d="M143.8 490V478.364H147.732C148.641 478.364 149.387 478.519 149.97 478.83C150.554 479.136 150.985 479.559 151.266 480.097C151.546 480.634 151.686 481.246 151.686 481.932C151.686 482.617 151.546 483.225 151.266 483.756C150.985 484.286 150.555 484.703 149.976 485.006C149.396 485.305 148.656 485.455 147.754 485.455H144.573V484.182H147.709C148.33 484.182 148.83 484.091 149.209 483.909C149.591 483.727 149.868 483.47 150.038 483.136C150.213 482.799 150.3 482.398 150.3 481.932C150.3 481.466 150.213 481.059 150.038 480.71C149.864 480.362 149.586 480.093 149.203 479.903C148.821 479.71 148.315 479.614 147.686 479.614H145.209V490H143.8ZM149.277 484.773L152.141 490H150.504L147.686 484.773H149.277Z" fill="#818CF8"/>
<path d="M334 465H254C242.954 465 234 473.954 234 485C234 496.046 242.954 505 254 505H334C345.046 505 354 496.046 354 485C354 473.954 345.046 465 334 465Z" fill="#27272A" stroke="#818CF8" stroke-width="2"/>
<path d="M334.054 481.273V482.409H329.531V481.273H334.054ZM330.849 479.182H332.19V487.5C332.19 487.879 332.245 488.163 332.355 488.352C332.469 488.538 332.613 488.663 332.787 488.727C332.965 488.788 333.152 488.818 333.349 488.818C333.497 488.818 333.618 488.811 333.713 488.795C333.808 488.777 333.884 488.761 333.94 488.75L334.213 489.955C334.122 489.989 333.995 490.023 333.832 490.057C333.67 490.095 333.463 490.114 333.213 490.114C332.834 490.114 332.463 490.032 332.099 489.869C331.74 489.706 331.44 489.458 331.202 489.125C330.967 488.792 330.849 488.371 330.849 487.864V479.182Z" fill="#818CF8"/>
<path d="M320.509 493.273V481.273H321.804V482.659H321.963C322.062 482.508 322.198 482.314 322.372 482.08C322.55 481.841 322.804 481.629 323.134 481.443C323.467 481.254 323.918 481.159 324.486 481.159C325.221 481.159 325.868 481.343 326.429 481.71C326.99 482.078 327.427 482.598 327.742 483.273C328.056 483.947 328.213 484.742 328.213 485.659C328.213 486.583 328.056 487.384 327.742 488.062C327.427 488.737 326.992 489.259 326.435 489.631C325.878 489.998 325.236 490.182 324.509 490.182C323.948 490.182 323.499 490.089 323.162 489.903C322.825 489.714 322.565 489.5 322.384 489.261C322.202 489.019 322.062 488.818 321.963 488.659H321.849V493.273H320.509ZM321.827 485.636C321.827 486.295 321.923 486.877 322.117 487.381C322.31 487.881 322.592 488.273 322.963 488.557C323.334 488.837 323.789 488.977 324.327 488.977C324.887 488.977 325.355 488.83 325.73 488.534C326.109 488.235 326.393 487.833 326.582 487.33C326.776 486.822 326.872 486.258 326.872 485.636C326.872 485.023 326.777 484.47 326.588 483.977C326.402 483.481 326.12 483.089 325.742 482.801C325.367 482.509 324.895 482.364 324.327 482.364C323.781 482.364 323.323 482.502 322.952 482.778C322.581 483.051 322.3 483.434 322.111 483.926C321.921 484.415 321.827 484.985 321.827 485.636Z" fill="#818CF8"/>
<path d="M316.712 490V481.273H318.053V490H316.712ZM317.394 479.818C317.132 479.818 316.907 479.729 316.717 479.551C316.532 479.373 316.439 479.159 316.439 478.909C316.439 478.659 316.532 478.445 316.717 478.267C316.907 478.089 317.132 478 317.394 478C317.655 478 317.878 478.089 318.064 478.267C318.253 478.445 318.348 478.659 318.348 478.909C318.348 479.159 318.253 479.373 318.064 479.551C317.878 479.729 317.655 479.818 317.394 479.818Z" fill="#818CF8"/>
<path d="M310.759 490V481.273H312.054V482.591H312.145C312.304 482.159 312.592 481.809 313.009 481.54C313.425 481.271 313.895 481.136 314.418 481.136C314.516 481.136 314.639 481.138 314.787 481.142C314.935 481.146 315.046 481.152 315.122 481.159V482.523C315.077 482.511 314.973 482.494 314.81 482.472C314.651 482.445 314.482 482.432 314.304 482.432C313.88 482.432 313.501 482.521 313.168 482.699C312.838 482.873 312.577 483.116 312.384 483.426C312.194 483.733 312.099 484.083 312.099 484.477V490H310.759Z" fill="#818CF8"/>
<path d="M305.366 490.182C304.548 490.182 303.844 489.989 303.253 489.602C302.662 489.216 302.207 488.684 301.889 488.006C301.571 487.328 301.412 486.553 301.412 485.682C301.412 484.795 301.575 484.013 301.901 483.335C302.23 482.653 302.688 482.121 303.276 481.739C303.866 481.352 304.556 481.159 305.344 481.159C305.957 481.159 306.51 481.273 307.003 481.5C307.495 481.727 307.899 482.045 308.213 482.455C308.527 482.864 308.722 483.341 308.798 483.886H307.457C307.355 483.489 307.128 483.136 306.776 482.83C306.427 482.519 305.957 482.364 305.366 482.364C304.844 482.364 304.385 482.5 303.991 482.773C303.601 483.042 303.296 483.422 303.077 483.915C302.861 484.403 302.753 484.977 302.753 485.636C302.753 486.311 302.859 486.898 303.071 487.398C303.287 487.898 303.59 488.286 303.98 488.562C304.374 488.839 304.836 488.977 305.366 488.977C305.715 488.977 306.031 488.917 306.315 488.795C306.599 488.674 306.84 488.5 307.037 488.273C307.234 488.045 307.374 487.773 307.457 487.455H308.798C308.722 487.97 308.535 488.434 308.236 488.847C307.94 489.256 307.548 489.581 307.06 489.824C306.575 490.062 306.01 490.182 305.366 490.182Z" fill="#818CF8"/>
<path d="M298.163 481.273C298.095 480.697 297.819 480.25 297.334 479.932C296.849 479.614 296.254 479.455 295.55 479.455C295.035 479.455 294.584 479.538 294.198 479.705C293.815 479.871 293.516 480.1 293.3 480.392C293.088 480.684 292.982 481.015 292.982 481.386C292.982 481.697 293.055 481.964 293.203 482.188C293.355 482.407 293.548 482.591 293.783 482.739C294.018 482.883 294.264 483.002 294.521 483.097C294.779 483.188 295.016 483.261 295.232 483.318L296.413 483.636C296.716 483.716 297.054 483.826 297.425 483.966C297.8 484.106 298.158 484.297 298.499 484.54C298.843 484.778 299.127 485.085 299.351 485.46C299.574 485.835 299.686 486.295 299.686 486.841C299.686 487.47 299.521 488.038 299.192 488.545C298.866 489.053 298.389 489.456 297.76 489.756C297.135 490.055 296.376 490.205 295.482 490.205C294.648 490.205 293.927 490.07 293.317 489.801C292.711 489.532 292.234 489.157 291.885 488.676C291.54 488.195 291.345 487.636 291.3 487H292.754C292.792 487.439 292.94 487.803 293.198 488.091C293.459 488.375 293.788 488.587 294.186 488.727C294.588 488.864 295.019 488.932 295.482 488.932C296.019 488.932 296.502 488.845 296.93 488.67C297.359 488.492 297.698 488.246 297.948 487.932C298.198 487.614 298.323 487.242 298.323 486.818C298.323 486.432 298.215 486.117 297.999 485.875C297.783 485.633 297.499 485.436 297.146 485.284C296.794 485.133 296.413 485 296.004 484.886L294.573 484.477C293.663 484.216 292.944 483.843 292.413 483.358C291.883 482.873 291.618 482.239 291.618 481.455C291.618 480.803 291.794 480.235 292.146 479.75C292.502 479.261 292.98 478.883 293.578 478.614C294.18 478.341 294.853 478.205 295.595 478.205C296.345 478.205 297.012 478.339 297.595 478.608C298.179 478.873 298.641 479.237 298.982 479.699C299.326 480.161 299.508 480.686 299.527 481.273H298.163Z" fill="#818CF8"/>
<path d="M285.964 490.182C285.124 490.182 284.398 489.996 283.788 489.625C283.182 489.25 282.714 488.727 282.385 488.057C282.059 487.383 281.896 486.598 281.896 485.705C281.896 484.811 282.059 484.023 282.385 483.341C282.714 482.655 283.173 482.121 283.76 481.739C284.351 481.352 285.04 481.159 285.828 481.159C286.283 481.159 286.731 481.235 287.175 481.386C287.618 481.538 288.021 481.784 288.385 482.125C288.749 482.462 289.038 482.909 289.254 483.466C289.47 484.023 289.578 484.708 289.578 485.523V486.091H282.851V484.932H288.214C288.214 484.439 288.116 484 287.919 483.614C287.726 483.227 287.449 482.922 287.089 482.699C286.733 482.475 286.313 482.364 285.828 482.364C285.294 482.364 284.832 482.496 284.442 482.761C284.055 483.023 283.758 483.364 283.55 483.784C283.341 484.205 283.237 484.655 283.237 485.136V485.909C283.237 486.568 283.351 487.127 283.578 487.585C283.809 488.04 284.129 488.386 284.538 488.625C284.947 488.86 285.423 488.977 285.964 488.977C286.317 488.977 286.635 488.928 286.919 488.83C287.207 488.727 287.455 488.576 287.663 488.375C287.872 488.17 288.033 487.917 288.146 487.614L289.442 487.977C289.305 488.417 289.076 488.803 288.754 489.136C288.432 489.466 288.034 489.723 287.561 489.909C287.088 490.091 286.555 490.182 285.964 490.182Z" fill="#818CF8"/>
<path d="M272.555 493.273V481.273H273.851V482.659H274.01C274.108 482.508 274.245 482.314 274.419 482.08C274.597 481.841 274.851 481.629 275.18 481.443C275.514 481.254 275.965 481.159 276.533 481.159C277.268 481.159 277.915 481.343 278.476 481.71C279.036 482.078 279.474 482.598 279.788 483.273C280.103 483.947 280.26 484.742 280.26 485.659C280.26 486.583 280.103 487.384 279.788 488.062C279.474 488.737 279.038 489.259 278.482 489.631C277.925 489.998 277.283 490.182 276.555 490.182C275.995 490.182 275.546 490.089 275.209 489.903C274.872 489.714 274.612 489.5 274.43 489.261C274.249 489.019 274.108 488.818 274.01 488.659H273.896V493.273H272.555ZM273.874 485.636C273.874 486.295 273.97 486.877 274.163 487.381C274.357 487.881 274.639 488.273 275.01 488.557C275.381 488.837 275.836 488.977 276.374 488.977C276.934 488.977 277.402 488.83 277.777 488.534C278.156 488.235 278.44 487.833 278.629 487.33C278.822 486.822 278.919 486.258 278.919 485.636C278.919 485.023 278.824 484.47 278.635 483.977C278.449 483.481 278.167 483.089 277.788 482.801C277.413 482.509 276.942 482.364 276.374 482.364C275.828 482.364 275.37 482.502 274.999 482.778C274.627 483.051 274.347 483.434 274.158 483.926C273.968 484.415 273.874 484.985 273.874 485.636Z" fill="#818CF8"/>
<path d="M264.513 493.273C264.285 493.273 264.083 493.254 263.905 493.216C263.727 493.182 263.604 493.148 263.535 493.114L263.876 491.932C264.202 492.015 264.49 492.045 264.74 492.023C264.99 492 265.212 491.888 265.405 491.688C265.602 491.491 265.782 491.17 265.945 490.727L266.195 490.045L262.967 481.273H264.422L266.831 488.227H266.922L269.331 481.273H270.785L267.081 491.273C266.914 491.723 266.708 492.097 266.462 492.392C266.215 492.691 265.929 492.913 265.604 493.057C265.282 493.201 264.918 493.273 264.513 493.273Z" fill="#818CF8"/>
<path d="M253.929 479.614V478.364H262.656V479.614H258.997V490H257.588V479.614H253.929Z" fill="#818CF8"/>
<path d="M454 465H394C382.954 465 374 473.954 374 485C374 496.046 382.954 505 394 505H454C465.046 505 474 496.046 474 485C474 473.954 465.046 465 454 465Z" fill="#27272A" stroke="#818CF8" stroke-width="2"/>
<path d="M449.12 483.227L447.916 483.568C447.84 483.367 447.728 483.172 447.58 482.983C447.436 482.79 447.24 482.631 446.99 482.506C446.74 482.381 446.419 482.318 446.029 482.318C445.495 482.318 445.05 482.441 444.694 482.687C444.342 482.93 444.166 483.239 444.166 483.614C444.166 483.947 444.287 484.21 444.529 484.403C444.772 484.597 445.15 484.758 445.666 484.886L446.961 485.205C447.741 485.394 448.323 485.684 448.705 486.074C449.088 486.46 449.279 486.958 449.279 487.568C449.279 488.068 449.135 488.515 448.847 488.909C448.563 489.303 448.166 489.614 447.654 489.841C447.143 490.068 446.548 490.182 445.87 490.182C444.98 490.182 444.243 489.989 443.66 489.602C443.077 489.216 442.707 488.652 442.552 487.909L443.825 487.591C443.946 488.061 444.175 488.413 444.512 488.648C444.853 488.883 445.298 489 445.847 489C446.472 489 446.969 488.867 447.336 488.602C447.707 488.333 447.893 488.011 447.893 487.636C447.893 487.333 447.787 487.08 447.575 486.875C447.363 486.667 447.037 486.511 446.597 486.409L445.143 486.068C444.344 485.879 443.757 485.585 443.382 485.187C443.01 484.786 442.825 484.284 442.825 483.682C442.825 483.189 442.963 482.754 443.24 482.375C443.52 481.996 443.9 481.699 444.382 481.483C444.866 481.267 445.416 481.159 446.029 481.159C446.893 481.159 447.571 481.348 448.063 481.727C448.56 482.106 448.912 482.606 449.12 483.227Z" fill="#818CF8"/>
<path d="M439.142 481.273H440.482V490.636C440.482 491.174 440.39 491.64 440.204 492.034C440.022 492.428 439.746 492.733 439.374 492.949C439.007 493.165 438.543 493.273 437.982 493.273C437.937 493.273 437.892 493.273 437.846 493.273C437.801 493.273 437.755 493.273 437.71 493.273V492.023C437.755 492.023 437.797 492.023 437.835 492.023C437.873 492.023 437.914 492.023 437.96 492.023C438.369 492.023 438.668 491.902 438.857 491.659C439.047 491.42 439.142 491.08 439.142 490.636V481.273ZM439.801 479.818C439.539 479.818 439.314 479.729 439.124 479.551C438.939 479.373 438.846 479.159 438.846 478.909C438.846 478.659 438.939 478.445 439.124 478.267C439.314 478.089 439.539 478 439.801 478C440.062 478 440.285 478.089 440.471 478.267C440.66 478.445 440.755 478.659 440.755 478.909C440.755 479.159 440.66 479.373 440.471 479.551C440.285 479.729 440.062 479.818 439.801 479.818Z" fill="#818CF8"/>
<path d="M435.712 490.091C435.432 490.091 435.192 489.991 434.991 489.79C434.79 489.589 434.69 489.348 434.69 489.068C434.69 488.788 434.79 488.547 434.991 488.347C435.192 488.146 435.432 488.045 435.712 488.045C435.993 488.045 436.233 488.146 436.434 488.347C436.635 488.547 436.735 488.788 436.735 489.068C436.735 489.254 436.688 489.424 436.593 489.58C436.502 489.735 436.379 489.86 436.224 489.955C436.072 490.045 435.902 490.091 435.712 490.091Z" fill="#818CF8"/>
<path d="M432.718 481.273V482.409H428.195V481.273H432.718ZM429.513 479.182H430.854V487.5C430.854 487.879 430.909 488.163 431.019 488.352C431.133 488.538 431.277 488.663 431.451 488.727C431.629 488.788 431.817 488.818 432.013 488.818C432.161 488.818 432.282 488.811 432.377 488.795C432.472 488.777 432.548 488.761 432.604 488.75L432.877 489.955C432.786 489.989 432.659 490.023 432.496 490.057C432.334 490.095 432.127 490.114 431.877 490.114C431.498 490.114 431.127 490.032 430.763 489.869C430.404 489.706 430.104 489.458 429.866 489.125C429.631 488.792 429.513 488.371 429.513 487.864V479.182Z" fill="#818CF8"/>
<path d="M421.282 481.273L423.373 484.841L425.464 481.273H427.009L424.191 485.636L427.009 490H425.464L423.373 486.614L421.282 490H419.737L422.509 485.636L419.737 481.273H421.282Z" fill="#818CF8"/>
<path d="M414.863 490.182C414.022 490.182 413.297 489.996 412.687 489.625C412.081 489.25 411.613 488.727 411.284 488.057C410.958 487.383 410.795 486.598 410.795 485.705C410.795 484.811 410.958 484.023 411.284 483.341C411.613 482.655 412.071 482.121 412.659 481.739C413.249 481.352 413.939 481.159 414.727 481.159C415.181 481.159 415.63 481.235 416.073 481.386C416.517 481.538 416.92 481.784 417.284 482.125C417.647 482.462 417.937 482.909 418.153 483.466C418.369 484.023 418.477 484.708 418.477 485.523V486.091H411.749V484.932H417.113C417.113 484.439 417.015 484 416.818 483.614C416.624 483.227 416.348 482.922 415.988 482.699C415.632 482.475 415.212 482.364 414.727 482.364C414.193 482.364 413.731 482.496 413.34 482.761C412.954 483.023 412.657 483.364 412.448 483.784C412.24 484.205 412.136 484.655 412.136 485.136V485.909C412.136 486.568 412.249 487.127 412.477 487.585C412.708 488.04 413.028 488.386 413.437 488.625C413.846 488.86 414.321 488.977 414.863 488.977C415.215 488.977 415.534 488.928 415.818 488.83C416.106 488.727 416.354 488.576 416.562 488.375C416.77 488.17 416.931 487.917 417.045 487.614L418.34 487.977C418.204 488.417 417.975 488.803 417.653 489.136C417.331 489.466 416.933 489.723 416.46 489.909C415.986 490.091 415.454 490.182 414.863 490.182Z" fill="#818CF8"/>
<path d="M408.566 478.364V490H407.203L400.862 480.864H400.748V490H399.339V478.364H400.703L407.066 487.523H407.18V478.364H408.566Z" fill="#818CF8"/>
<path d="M614 465H514C502.954 465 494 473.954 494 485C494 496.046 502.954 505 514 505H614C625.046 505 634 496.046 634 485C634 473.954 625.046 465 614 465Z" fill="#27272A" stroke="#818CF8" stroke-width="2"/>
<path d="M610.734 481.273C610.666 480.697 610.389 480.25 609.904 479.932C609.419 479.614 608.825 479.455 608.12 479.455C607.605 479.455 607.154 479.538 606.768 479.705C606.385 479.871 606.086 480.1 605.87 480.392C605.658 480.684 605.552 481.015 605.552 481.386C605.552 481.697 605.626 481.964 605.774 482.188C605.925 482.407 606.118 482.591 606.353 482.739C606.588 482.883 606.834 483.002 607.092 483.097C607.349 483.188 607.586 483.261 607.802 483.318L608.984 483.636C609.287 483.716 609.624 483.826 609.995 483.966C610.37 484.106 610.728 484.297 611.069 484.54C611.414 484.778 611.698 485.085 611.921 485.46C612.145 485.835 612.256 486.295 612.256 486.841C612.256 487.47 612.092 488.038 611.762 488.545C611.436 489.053 610.959 489.456 610.33 489.756C609.705 490.055 608.946 490.205 608.052 490.205C607.219 490.205 606.497 490.07 605.887 489.801C605.281 489.532 604.804 489.157 604.455 488.676C604.111 488.195 603.916 487.636 603.87 487H605.325C605.363 487.439 605.51 487.803 605.768 488.091C606.029 488.375 606.359 488.587 606.756 488.727C607.158 488.864 607.59 488.932 608.052 488.932C608.59 488.932 609.073 488.845 609.501 488.67C609.929 488.492 610.268 488.246 610.518 487.932C610.768 487.614 610.893 487.242 610.893 486.818C610.893 486.432 610.785 486.117 610.569 485.875C610.353 485.633 610.069 485.436 609.717 485.284C609.364 485.133 608.984 485 608.575 484.886L607.143 484.477C606.234 484.216 605.514 483.843 604.984 483.358C604.453 482.873 604.188 482.239 604.188 481.455C604.188 480.803 604.364 480.235 604.717 479.75C605.073 479.261 605.55 478.883 606.149 478.614C606.751 478.341 607.423 478.205 608.166 478.205C608.916 478.205 609.582 478.339 610.166 478.608C610.749 478.873 611.211 479.237 611.552 479.699C611.897 480.161 612.078 480.686 612.097 481.273H610.734Z" fill="#818CF8"/>
<path d="M600.531 481.273C600.462 480.697 600.186 480.25 599.701 479.932C599.216 479.614 598.622 479.455 597.917 479.455C597.402 479.455 596.951 479.538 596.565 479.705C596.182 479.871 595.883 480.1 595.667 480.392C595.455 480.684 595.349 481.015 595.349 481.386C595.349 481.697 595.423 481.964 595.57 482.188C595.722 482.407 595.915 482.591 596.15 482.739C596.385 482.883 596.631 483.002 596.889 483.097C597.146 483.188 597.383 483.261 597.599 483.318L598.781 483.636C599.084 483.716 599.421 483.826 599.792 483.966C600.167 484.106 600.525 484.297 600.866 484.54C601.211 484.778 601.495 485.085 601.718 485.46C601.942 485.835 602.053 486.295 602.053 486.841C602.053 487.47 601.889 488.038 601.559 488.545C601.233 489.053 600.756 489.456 600.127 489.756C599.502 490.055 598.743 490.205 597.849 490.205C597.015 490.205 596.294 490.07 595.684 489.801C595.078 489.532 594.601 489.157 594.252 488.676C593.908 488.195 593.712 487.636 593.667 487H595.122C595.159 487.439 595.307 487.803 595.565 488.091C595.826 488.375 596.156 488.587 596.553 488.727C596.955 488.864 597.387 488.932 597.849 488.932C598.387 488.932 598.87 488.845 599.298 488.67C599.726 488.492 600.065 488.246 600.315 487.932C600.565 487.614 600.69 487.242 600.69 486.818C600.69 486.432 600.582 486.117 600.366 485.875C600.15 485.633 599.866 485.436 599.514 485.284C599.161 485.133 598.781 485 598.372 484.886L596.94 484.477C596.031 484.216 595.311 483.843 594.781 483.358C594.25 482.873 593.985 482.239 593.985 481.455C593.985 480.803 594.161 480.235 594.514 479.75C594.87 479.261 595.347 478.883 595.945 478.614C596.548 478.341 597.22 478.205 597.962 478.205C598.712 478.205 599.379 478.339 599.962 478.608C600.546 478.873 601.008 479.237 601.349 479.699C601.694 480.161 601.875 480.686 601.894 481.273H600.531Z" fill="#818CF8"/>
<path d="M591.89 482H590.481C590.398 481.595 590.252 481.239 590.043 480.932C589.839 480.625 589.589 480.367 589.293 480.159C589.002 479.947 588.678 479.788 588.322 479.682C587.966 479.576 587.595 479.523 587.208 479.523C586.504 479.523 585.865 479.701 585.293 480.057C584.725 480.413 584.273 480.938 583.935 481.631C583.602 482.324 583.435 483.174 583.435 484.182C583.435 485.189 583.602 486.04 583.935 486.733C584.273 487.426 584.725 487.951 585.293 488.307C585.865 488.663 586.504 488.841 587.208 488.841C587.595 488.841 587.966 488.788 588.322 488.682C588.678 488.576 589.002 488.419 589.293 488.21C589.589 487.998 589.839 487.739 590.043 487.432C590.252 487.121 590.398 486.765 590.481 486.364H591.89C591.784 486.958 591.591 487.491 591.31 487.96C591.03 488.43 590.682 488.83 590.265 489.159C589.848 489.485 589.38 489.733 588.862 489.903C588.346 490.074 587.795 490.159 587.208 490.159C586.216 490.159 585.333 489.917 584.56 489.432C583.788 488.947 583.18 488.258 582.737 487.364C582.293 486.47 582.072 485.409 582.072 484.182C582.072 482.955 582.293 481.894 582.737 481C583.18 480.106 583.788 479.417 584.56 478.932C585.333 478.447 586.216 478.205 587.208 478.205C587.795 478.205 588.346 478.29 588.862 478.46C589.38 478.631 589.848 478.881 590.265 479.21C590.682 479.536 591.03 479.934 591.31 480.403C591.591 480.869 591.784 481.402 591.89 482Z" fill="#818CF8"/>
<path d="M571.202 490.182C570.475 490.182 569.833 489.998 569.276 489.631C568.719 489.259 568.284 488.737 567.969 488.063C567.655 487.384 567.498 486.583 567.498 485.659C567.498 484.742 567.655 483.947 567.969 483.273C568.284 482.598 568.721 482.078 569.282 481.71C569.843 481.343 570.49 481.159 571.225 481.159C571.793 481.159 572.242 481.254 572.572 481.443C572.905 481.629 573.159 481.841 573.333 482.08C573.511 482.314 573.649 482.508 573.748 482.659H573.861V478.364H575.202V490H573.907V488.659H573.748C573.649 488.818 573.509 489.019 573.327 489.261C573.146 489.5 572.886 489.714 572.549 489.903C572.212 490.089 571.763 490.182 571.202 490.182ZM571.384 488.977C571.922 488.977 572.377 488.837 572.748 488.557C573.119 488.273 573.401 487.881 573.594 487.381C573.788 486.877 573.884 486.295 573.884 485.636C573.884 484.985 573.789 484.415 573.6 483.926C573.411 483.434 573.13 483.051 572.759 482.778C572.388 482.502 571.93 482.364 571.384 482.364C570.816 482.364 570.343 482.509 569.964 482.801C569.589 483.089 569.307 483.481 569.117 483.977C568.932 484.47 568.839 485.023 568.839 485.636C568.839 486.258 568.933 486.822 569.123 487.33C569.316 487.833 569.6 488.235 569.975 488.534C570.354 488.83 570.824 488.977 571.384 488.977Z" fill="#818CF8"/>
<path d="M559.889 484.75V490H558.548V481.273H559.843V482.636H559.957C560.161 482.193 560.472 481.837 560.889 481.568C561.305 481.295 561.843 481.159 562.502 481.159C563.093 481.159 563.61 481.28 564.053 481.523C564.496 481.761 564.841 482.125 565.087 482.614C565.334 483.098 565.457 483.712 565.457 484.455V490H564.116V484.545C564.116 483.86 563.938 483.326 563.582 482.943C563.226 482.557 562.737 482.364 562.116 482.364C561.688 482.364 561.305 482.456 560.968 482.642C560.635 482.828 560.371 483.098 560.178 483.455C559.985 483.811 559.889 484.242 559.889 484.75Z" fill="#818CF8"/>
<path d="M554.751 490V481.273H556.092V490H554.751ZM555.433 479.818C555.171 479.818 554.946 479.729 554.756 479.551C554.571 479.373 554.478 479.159 554.478 478.909C554.478 478.659 554.571 478.445 554.756 478.267C554.946 478.089 555.171 478 555.433 478C555.694 478 555.917 478.089 556.103 478.267C556.292 478.445 556.387 478.659 556.387 478.909C556.387 479.159 556.292 479.373 556.103 479.551C555.917 479.729 555.694 479.818 555.433 479.818Z" fill="#818CF8"/>
<path d="M543.728 490L541.069 481.273H542.478L544.364 487.955H544.455L546.319 481.273H547.751L549.592 487.932H549.682L551.569 481.273H552.978L550.319 490H549.001L547.092 483.295H546.955L545.046 490H543.728Z" fill="#818CF8"/>
<path d="M539.295 478.364V490H537.954V478.364H539.295Z" fill="#818CF8"/>
<path d="M534.157 490V481.273H535.498V490H534.157ZM534.839 479.818C534.577 479.818 534.352 479.729 534.163 479.551C533.977 479.373 533.884 479.159 533.884 478.909C533.884 478.659 533.977 478.445 534.163 478.267C534.352 478.089 534.577 478 534.839 478C535.1 478 535.324 478.089 535.509 478.267C535.699 478.445 535.793 478.659 535.793 478.909C535.793 479.159 535.699 479.373 535.509 479.551C535.324 479.729 535.1 479.818 534.839 479.818Z" fill="#818CF8"/>
<path d="M527.709 490.205C527.156 490.205 526.655 490.1 526.204 489.892C525.753 489.68 525.395 489.375 525.13 488.977C524.865 488.576 524.732 488.091 524.732 487.523C524.732 487.023 524.831 486.617 525.028 486.307C525.225 485.992 525.488 485.746 525.817 485.568C526.147 485.39 526.511 485.258 526.908 485.17C527.31 485.08 527.713 485.008 528.119 484.955C528.649 484.886 529.079 484.835 529.408 484.801C529.742 484.763 529.984 484.701 530.136 484.614C530.291 484.527 530.369 484.375 530.369 484.159V484.114C530.369 483.553 530.215 483.117 529.908 482.807C529.605 482.496 529.145 482.341 528.528 482.341C527.887 482.341 527.386 482.481 527.022 482.761C526.658 483.042 526.403 483.341 526.255 483.659L524.982 483.205C525.209 482.674 525.512 482.261 525.891 481.966C526.274 481.667 526.691 481.458 527.141 481.341C527.596 481.22 528.043 481.159 528.482 481.159C528.762 481.159 529.084 481.193 529.448 481.261C529.816 481.326 530.17 481.46 530.511 481.665C530.855 481.869 531.141 482.178 531.369 482.591C531.596 483.004 531.709 483.557 531.709 484.25V490H530.369V488.818H530.3C530.209 489.008 530.058 489.21 529.846 489.426C529.634 489.642 529.351 489.826 528.999 489.977C528.647 490.129 528.217 490.205 527.709 490.205ZM527.914 489C528.444 489 528.891 488.896 529.255 488.687C529.622 488.479 529.899 488.21 530.084 487.881C530.274 487.551 530.369 487.205 530.369 486.841V485.614C530.312 485.682 530.187 485.744 529.994 485.801C529.804 485.854 529.584 485.902 529.334 485.943C529.088 485.981 528.848 486.015 528.613 486.045C528.382 486.072 528.194 486.095 528.05 486.114C527.702 486.159 527.376 486.233 527.073 486.335C526.774 486.434 526.531 486.583 526.346 486.784C526.164 486.981 526.073 487.25 526.073 487.591C526.073 488.057 526.245 488.409 526.59 488.648C526.939 488.883 527.38 489 527.914 489Z" fill="#818CF8"/>
<path d="M515.609 479.614V478.364H524.336V479.614H520.677V490H519.268V479.614H515.609Z" fill="#818CF8"/>
<path d="M1079.04 500.288C1077.84 500.288 1076.8 500.016 1075.92 499.472C1075.05 498.928 1074.38 498.16 1073.9 497.168C1073.44 496.16 1073.2 494.984 1073.2 493.64C1073.2 492.296 1073.44 491.128 1073.9 490.136C1074.38 489.144 1075.04 488.376 1075.89 487.832C1076.76 487.272 1077.77 486.992 1078.94 486.992C1080.04 486.992 1081.02 487.256 1081.87 487.784C1082.72 488.296 1083.37 489.048 1083.84 490.04C1084.32 491.032 1084.56 492.24 1084.56 493.664V494.264H1075.32C1075.4 495.624 1075.76 496.648 1076.4 497.336C1077.05 498.024 1077.93 498.368 1079.04 498.368C1079.87 498.368 1080.55 498.176 1081.08 497.792C1081.62 497.392 1082 496.872 1082.2 496.232L1084.36 496.4C1084.03 497.536 1083.39 498.472 1082.44 499.208C1081.52 499.928 1080.38 500.288 1079.04 500.288ZM1075.32 492.488H1082.35C1082.25 491.256 1081.89 490.352 1081.27 489.776C1080.66 489.2 1079.88 488.912 1078.94 488.912C1077.96 488.912 1077.16 489.216 1076.52 489.824C1075.89 490.416 1075.49 491.304 1075.32 492.488Z" fill="#71717A"/>
<path d="M1053.3 500V487.28H1055.15L1055.22 490.496L1054.93 490.4C1055.08 489.696 1055.33 489.096 1055.68 488.6C1056.05 488.088 1056.49 487.696 1057.02 487.424C1057.55 487.136 1058.13 486.992 1058.77 486.992C1059.88 486.992 1060.77 487.296 1061.46 487.904C1062.17 488.512 1062.61 489.36 1062.78 490.448L1062.4 490.424C1062.53 489.688 1062.76 489.072 1063.09 488.576C1063.45 488.064 1063.89 487.672 1064.44 487.4C1064.98 487.128 1065.61 486.992 1066.31 486.992C1067.22 486.992 1067.99 487.184 1068.61 487.568C1069.24 487.936 1069.71 488.48 1070.03 489.2C1070.35 489.92 1070.51 490.792 1070.51 491.816V500H1068.49V492.248C1068.49 491.096 1068.27 490.232 1067.82 489.656C1067.37 489.064 1066.71 488.768 1065.83 488.768C1065.24 488.768 1064.72 488.912 1064.27 489.2C1063.84 489.488 1063.5 489.904 1063.26 490.448C1063.02 490.976 1062.9 491.624 1062.9 492.392V500H1060.89V492.392C1060.89 491.256 1060.69 490.368 1060.29 489.728C1059.89 489.088 1059.21 488.768 1058.27 488.768C1057.68 488.768 1057.16 488.912 1056.71 489.2C1056.28 489.488 1055.93 489.904 1055.68 490.448C1055.44 490.992 1055.32 491.64 1055.32 492.392V500H1053.3Z" fill="#71717A"/>
<path d="M1047.61 500V497.288H1050.32V500H1047.61Z" fill="#71717A"/>
<path d="M1034.75 500V497.984L1042.79 489.056H1034.99V487.28H1045V489.296L1036.96 498.224H1045.19V500H1034.75Z" fill="#71717A"/>
<path d="M1021.2 500L1025.88 493.472L1021.44 487.28H1023.79L1027.13 492.08L1030.37 487.28H1032.77L1028.37 493.52L1032.98 500H1030.63L1027.13 494.864L1023.6 500H1021.2Z" fill="#71717A"/>
<path d="M1013.86 500V487.28H1015.63L1015.73 490.496L1015.54 490.424C1015.7 489.336 1016.04 488.544 1016.57 488.048C1017.11 487.536 1017.83 487.28 1018.73 487.28H1019.98V489.2H1018.75C1018.11 489.2 1017.58 489.32 1017.15 489.56C1016.73 489.784 1016.41 490.128 1016.19 490.592C1015.98 491.04 1015.87 491.616 1015.87 492.32V500H1013.86Z" fill="#71717A"/>
<path d="M1004.16 500.288C1002.85 500.288 1001.8 499.984 1001.02 499.376C1000.25 498.768 999.868 497.92 999.868 496.832C999.868 495.744 1000.19 494.888 1000.83 494.264C1001.47 493.64 1002.48 493.2 1003.88 492.944L1008.39 492.104C1008.39 491.032 1008.13 490.232 1007.62 489.704C1007.12 489.176 1006.37 488.912 1005.36 488.912C1004.48 488.912 1003.79 489.112 1003.28 489.512C1002.76 489.896 1002.41 490.456 1002.22 491.192L1000.08 491.024C1000.32 489.824 1000.9 488.856 1001.81 488.12C1002.74 487.368 1003.92 486.992 1005.36 486.992C1007 486.992 1008.24 487.456 1009.11 488.384C1009.97 489.296 1010.4 490.56 1010.4 492.176V497.432C1010.4 497.72 1010.45 497.928 1010.55 498.056C1010.66 498.168 1010.84 498.224 1011.08 498.224H1011.58V500C1011.52 500.016 1011.41 500.024 1011.27 500.024C1011.12 500.04 1010.97 500.048 1010.81 500.048C1010.24 500.048 1009.76 499.96 1009.4 499.784C1009.04 499.592 1008.79 499.304 1008.63 498.92C1008.47 498.52 1008.39 498 1008.39 497.36L1008.63 497.408C1008.52 497.952 1008.24 498.448 1007.81 498.896C1007.38 499.328 1006.84 499.672 1006.2 499.928C1005.56 500.168 1004.88 500.288 1004.16 500.288ZM1004.36 498.512C1005.2 498.512 1005.92 498.352 1006.52 498.032C1007.12 497.696 1007.59 497.248 1007.91 496.688C1008.23 496.112 1008.39 495.472 1008.39 494.768V493.856L1004.26 494.624C1003.4 494.784 1002.8 495.032 1002.46 495.368C1002.14 495.688 1001.98 496.112 1001.98 496.64C1001.98 497.232 1002.19 497.696 1002.6 498.032C1003.04 498.352 1003.62 498.512 1004.36 498.512Z" fill="#71717A"/>
<path d="M979.92 500V487.28H981.768L981.84 490.496L981.552 490.4C981.696 489.696 981.944 489.096 982.296 488.6C982.664 488.088 983.112 487.696 983.64 487.424C984.168 487.136 984.752 486.992 985.392 486.992C986.496 486.992 987.392 487.296 988.08 487.904C988.784 488.512 989.224 489.36 989.4 490.448L989.016 490.424C989.144 489.688 989.376 489.072 989.712 488.576C990.064 488.064 990.512 487.672 991.056 487.4C991.6 487.128 992.224 486.992 992.928 486.992C993.84 486.992 994.608 487.184 995.232 487.568C995.856 487.936 996.328 488.48 996.648 489.2C996.968 489.92 997.128 490.792 997.128 491.816V500H995.112V492.248C995.112 491.096 994.888 490.232 994.44 489.656C993.992 489.064 993.328 488.768 992.448 488.768C991.856 488.768 991.336 488.912 990.888 489.2C990.456 489.488 990.12 489.904 989.88 490.448C989.64 490.976 989.52 491.624 989.52 492.392V500H987.504V492.392C987.504 491.256 987.304 490.368 986.904 489.728C986.504 489.088 985.832 488.768 984.888 488.768C984.296 488.768 983.776 488.912 983.328 489.2C982.896 489.488 982.552 489.904 982.296 490.448C982.056 490.992 981.936 491.64 981.936 492.392V500H979.92Z" fill="#71717A"/>
</svg>
